<svg xmlns="http://www.w3.org/2000/svg" viewBox="0 0 134.51 49.71"><defs><style>.cls-1{fill-rule:evenodd;}</style></defs><g id="Calque_2" data-name="Calque 2"><g id="Calque_1-2" data-name="Calque 1"><path d="M61.48,22.25l-.75-3.08q.72-.18,1.62-.33c.52-.08,1.14-.15,1.85-.22s1.5-.11,2.38-.11a14.71,14.71,0,0,1,1.81.12,10.06,10.06,0,0,1,1.86.4,5,5,0,0,1,1.55.78A2.37,2.37,0,0,1,72.68,21c.21.72.37,1.38.5,2s.25,1.21.36,1.8.23,1.22.34,1.87.27,1.39.46,2.23l.75,1.73,1.85-.15.46,1.94-1.69,1.26H71L70.05,32a3.35,3.35,0,0,1-1,.76,7.61,7.61,0,0,1-1.19.51,8.34,8.34,0,0,1-1.11.29,4.89,4.89,0,0,1-.77.09H59.76a8.49,8.49,0,0,1-.9-1.26,3.62,3.62,0,0,1-.42-1.85,6.88,6.88,0,0,1,.17-1.45,8.59,8.59,0,0,1,.5-1.48,7.11,7.11,0,0,1,.8-1.33,4.21,4.21,0,0,1,1.07-1l7.51-1-.19-1.59L67.17,21Zm1.62,7.39a2.4,2.4,0,0,0,.82,2c.56,0,1.12-.1,1.69-.19s1.09-.19,1.59-.31,1-.25,1.35-.38.71-.24.94-.34l-.63-4.06L64,27.5A5,5,0,0,0,63.1,29.64Z"/><path d="M93.68,21.41c0,1,0,2.09,0,3.17s0,2.1,0,3.09V30.1l-3.85,3.68H82L78.5,31V21.29l-2.16-1.17.78-1.37H83l0,10.84,1.09,2.18,3.57-.32L89,29.24l0-8.16-.29-.21-.41-.31-.37-.3-.24-.17V18.75h6Z"/><path d="M100.89,27.88c0,1.32,0,2.57,0,3.74l1.38.51c0,.26,0,.52,0,.76s0,.52,0,.8H96.37c0-.3,0-.72,0-1.24s0-1.12,0-1.78,0-1.35,0-2.08V21.05l-1.6-1,.75-1.34h5l.19,2.75a18.69,18.69,0,0,1,2-1.56,12.51,12.51,0,0,1,1.83-1.06,4.48,4.48,0,0,1,1.83-.46,4.83,4.83,0,0,1,1.47.21,8,8,0,0,1,1.16.46,5.48,5.48,0,0,1,.83.51c.22.17.37.29.45.34l-1.19,3.2L105,22.25a3.8,3.8,0,0,0-1,.31c-.41.17-.82.35-1.22.55s-.78.4-1.12.6l-.75.45C100.87,25.31,100.88,26.55,100.89,27.88Z"/><path d="M115.38,30.59A4.46,4.46,0,0,0,118.77,32a4.19,4.19,0,0,0,1.82-1.19c.5-.56,1-1.21,1.62-1.94l3.51,1.22a2.44,2.44,0,0,1-.44.82,7.9,7.9,0,0,1-1,1.2,7.57,7.57,0,0,1-1.44,1.09,3.23,3.23,0,0,1-1.55.51h-7.66a2.52,2.52,0,0,1-1.71-.94,9.8,9.8,0,0,1-1.58-2.33,12,12,0,0,1-1-3,6.24,6.24,0,0,1,0-2.86c.11-.33.28-.79.53-1.37a9.58,9.58,0,0,1,1-1.75,8,8,0,0,1,1.53-1.62,4.92,4.92,0,0,1,2.16-1c.56-.1,1.24-.18,2-.24a23.89,23.89,0,0,1,2.4-.06,19.28,19.28,0,0,1,2.25.19,4,4,0,0,1,1.58.53,5.61,5.61,0,0,1,1,.94,7.92,7.92,0,0,1,.93,1.42,8.8,8.8,0,0,1,.69,1.73,7.52,7.52,0,0,1,.3,1.85l-2.1,1.65-9.45.5A5.65,5.65,0,0,0,115.38,30.59Zm5.38-6.87c-.14-.46-.3-.95-.5-1.46a11.62,11.62,0,0,0-.63-1.36c-.22-.4-.42-.61-.61-.63a2.91,2.91,0,0,0-.79.06c-.33.06-.66.14-1,.23s-.67.19-1,.3a4.9,4.9,0,0,0-.75.31,2.15,2.15,0,0,0-.44.66,8.14,8.14,0,0,0-.41,1,11.13,11.13,0,0,0-.3,1.17,6.17,6.17,0,0,0-.1,1.07l6.75-.42A7.18,7.18,0,0,0,120.76,23.72Z"/><path d="M132.29,31.18l2.22.62v1.89h-6.57L128,15.25l-2.41-1,.41-1.43h6.29Z"/><g id="Bentham_Association"><path class="cls-1" d="M26.17,49.71c1.19-1.54,2.9-2.92,4.19-4.49-1.24-.82-2.63-1.49-3.94-2.24,1.55.13,3.07.65,4.66.89,1.14-.88-.57-1.29-.59-1.91s.71-.84,1.05-1.23a9.31,9.31,0,0,0-5.75-2.45c-.34,3.24-.33,6.61-.51,10.16,0,.23.08,1.26-.25,1.27s-.29-1.05-.3-1.23c-.19-3.55-.34-7-.55-10.28a11.44,11.44,0,0,0-5.42,2.66c.37.21,1.45.14,1.53.68s-.84.66-.85,1.31c0,1.57,3.15.08,4.11.09-.63,1.38-2.24,1.8-3.9,2.15a14.6,14.6,0,0,0,2.08,2.33,25.7,25.7,0,0,1,2.15,2.29,24.42,24.42,0,0,1-10.66-3A25,25,0,0,1,2.09,34.81,24.92,24.92,0,0,1,9,5.61,24.38,24.38,0,0,1,23.84,0a28.66,28.66,0,0,1,4.23.21A34.41,34.41,0,0,1,31.84,1a14.05,14.05,0,0,1,2.58.77A23.74,23.74,0,0,1,44.75,9.59a25.13,25.13,0,0,1,3.64,6.77A24.89,24.89,0,0,1,50,25.12a25.83,25.83,0,0,1-2.25,9.82A24.07,24.07,0,0,1,35.82,47.25,24.75,24.75,0,0,1,26.17,49.71Zm-2.29-47c-2.62.11-6,1.16-6.72,3.3-.3.87-.1,1.75-.39,2.79-3.54,1-6.69,2.18-9.09,4.49a10.27,10.27,0,0,0-2.84,4,9.3,9.3,0,0,0,2.29,9,18.09,18.09,0,0,0,9.26,4.66,10.11,10.11,0,0,1,1.74.21c.37.17.82,1.12,1.14,1.52a11.66,11.66,0,0,0,2.79,2.54c.36.24,1.48,1,1.87.55.55-.66-.65-.88-1.06-1.06a2.77,2.77,0,0,1-1.65-1.52c1.51,1.2,5.75,1.2,6.47-.64a1.5,1.5,0,0,0-1.1-2.15c-.34-.09-.95-.09-1-.34s1.32-.61.85-1.27a6.68,6.68,0,0,1-1.61-.05,19.71,19.71,0,0,0-2.37.17c-.51,0-1.09-.28-1.44-.17-.58.19-.15,1.12-.55,1.44-.37-.06-.55-.49-.59-.89A6,6,0,0,1,21,25c.45-.82.73-1.67,1.65-1.7-.19.45-.68,1-.33,1.57-.82.73-2.2,2-1.27,3.43.69.19,1.33-.26,2-.26a14.53,14.53,0,0,0,1.48.13c.27,0,.52-.2.8-.21.81,0,2,.71,2.41-.09C27,27.53,26,27.5,25.41,27c.13-.49.12-1.18-.21-1.44-.47.07-1.17.16-1.19-.25.75-.11,1.21-.37,1.23-1,0-.47-.45-.73-.51-1.06a12.26,12.26,0,0,1,.13-1.77,15.8,15.8,0,0,1,0-1.95c.18-1.07.95-1.4,1.94-1.69s2.41-.82,3.35-.13c.55.41.68,1.22,1.48,1.27a3.72,3.72,0,0,0-1.48-2.07c-1.06-.82-2.83-.51-4.49-.47-.06-1,.12-2.35-.59-2.58a7.14,7.14,0,0,0-2.54.17,6.27,6.27,0,0,0-5,3.93,20.66,20.66,0,0,0-.6,3.86c-.33,2.81-.51,5.89.34,8A3,3,0,0,1,13.9,28.5c-1.51-2.5.79-5.2,1.52-6.9a13.28,13.28,0,0,0,1-4.52c-.91.88-.79,2.13-1.27,3.25C14.46,22,13,22.93,12.92,25A5.43,5.43,0,0,1,11,22c-.67-3.82,2.65-6.2,5-7.32,7.13-3.32,18.56-1.84,21.8,4.07a11,11,0,0,1,0,9.6c-.22.4-.71.8-.76,1.23A15.89,15.89,0,0,0,42,26.17c1.87-1.83,3.45-5.76,2.16-9-.29-.73-.8-1.32-1-2a13.57,13.57,0,0,1-1.4-1.44c-3.33-3.32-8.32-4.92-14.26-5.59a3.33,3.33,0,0,1,.38-2.12c1.05-1.37,3.3.23,4.32.6C31.39,3.74,27.46,2.58,23.88,2.73Zm8.81,27c3.31.67,4.48-3.69,2.66-5.54.22,1.87,0,3.87-1.39,4.23a9.65,9.65,0,0,0,.63-3.85c-.11-.88-.62-1.8-.84-2.79-.35-1.56.09-3.87-.94-4.62C32.59,21.54,34,26.17,32.69,29.77ZM27.1,19.91c.65-.24.89-.78,1.69-.68.62.09,1.08.77,1.7.68-.06-.83-1.27-.88-1.48-1.69A1.62,1.62,0,0,0,27.1,19.91Zm-1.52-1.23c.06.14.1-.16,0,0Zm2.07,1.91c.67.26,2,.41,2.5-.13a2,2,0,0,0-.81-.34.58.58,0,1,1-1.1-.33C27.74,19.75,27.61,20.08,27.65,20.59Zm2.92,1.35c-.88.8-2.4.15-3-.5C27.71,22.54,30.76,24.1,30.57,21.94Zm-3.64,2.88c.62.71,1.65,1.51,1.82,2.75,0,.28-.08.65,0,1s.17.42.17.63c0,.52-.76,1.7.12,1.82s.89-1.89.81-2.88c-.22-2.71-1.33-4.69-3.39-5.58,0,0,0-.05-.08-.05C26.14,23.47,27.39,23.71,26.93,24.82Zm-1.4,12.27c-1.79.3-3.57-.88-4.65-1.82A16,16,0,0,1,18,31.93c-1.82,1.57-1,5.92-1,8.72,2.11-1.4,4.58-2.94,8-3,3.66-.12,6,1.37,8.55,2.58.42-3.1,1-7.42-1.52-8.59C30.33,34,28.9,36.55,25.53,37.09Z"/><path class="cls-1" d="M22,20.67a.65.65,0,0,0-.59-.93.61.61,0,1,1-1.15.38c-.55,0-.74.53-1.22.43a2.43,2.43,0,0,1,3-1,1.17,1.17,0,0,0-1.48-1.06c-.55.16-1.21,1-1.73,1.4-.17.12-.32.1-.39.17s-.24.72-.67.47A3.72,3.72,0,0,1,20,17.63a3.44,3.44,0,0,1,2.83.59,2.33,2.33,0,0,1,.6,1.48C23.3,20.27,22.55,20.48,22,20.67Z"/><path class="cls-1" d="M22.06,21.39c0,.95-3,2.71-3,.6C20,22.76,21.52,22.11,22.06,21.39Z"/><path class="cls-1" d="M23.38,25.08a.33.33,0,0,1-.38-.22C23.06,24.52,23.42,24.81,23.38,25.08Z"/><path class="cls-1" d="M24.1,26.09c.06,0,.07,0,.12,0-.2.68.44.86.76,1.15A.75.75,0,0,1,24.1,26.09Z"/></g></g></g></svg>