<svg xmlns="http://www.w3.org/2000/svg" viewBox="0 0 1104.47 500"><defs><style>.cls-1{fill-rule:evenodd;}.cls-2{stroke:#000;stroke-miterlimit:10;stroke-width:7px;}</style></defs><g id="Calque_2" data-name="Calque 2"><g id="Calque_1-2" data-name="Calque 1"><path class="cls-1" d="M185.49,172.91l34.26,27.37-6.35-41.65L199.76,71.69l-1.42-5.88c0-.15-.08-.3-.11-.46l-.25-1h0a50.29,50.29,0,0,0-5.19-12.68c-13.84-23.94-44.25-32.26-67.91-18.58s-31.62,44.18-17.78,68.13a50.92,50.92,0,0,0,9.21,11.6h0l.06,0c.84.79,1.71,1.54,2.6,2.26Z"/><path class="cls-1" d="M155.71,213.88l43.3,6.67-26.36-32.82-55.37-68.31-4.18-4.37c-.1-.12-.21-.23-.32-.35l-.72-.74h0a50.92,50.92,0,0,0-10.84-8.37c-24-13.82-54.38-5.95-68,17.58S28.11,177,52.07,190.81a50.86,50.86,0,0,0,13.77,5.46h.07c1.12.26,2.24.48,3.37.66Z"/><path class="cls-1" d="M151.38,266.09l40.84-16.15L153,234.41,70.9,202.32l-5.8-1.73-.46-.14-1-.29h0a50.08,50.08,0,1,0,1.09,96.11h0l.06,0c1.11-.34,2.19-.72,3.26-1.14Z"/><path class="cls-1" d="M171.74,311.29,198.4,276.5l-41.49,7.24-86.6,15.51-5.84,1.55c-.16,0-.31.08-.46.12l-1,.26h0a50.87,50.87,0,0,0-12.56,5.46C26.8,321,19.09,351.52,33.23,374.84S78,405.45,101.66,391.11a50.88,50.88,0,0,0,11.42-9.44h0l0-.05c.77-.86,1.5-1.74,2.2-2.65Z"/><path class="cls-1" d="M212.75,343.29l5.69-43.48-32.37,27L118.7,383.41l-4.3,4.25-.33.34-.74.72h0a50.64,50.64,0,0,0-8.16,11c-13.33,24.24-4.71,54.58,19.26,67.76s54.21,4.23,67.54-20a50.47,50.47,0,0,0,5.17-13.88h0v-.08c.24-1.12.42-2.25.58-3.39Z"/><path class="cls-1" d="M264.24,348.66l-15.51-40.88L233.62,347,202.4,429l-1.68,5.79c-.05.15-.09.31-.13.46l-.29,1h0a51.73,51.73,0,0,0-1.84,13.56c-.07,27.66,21.55,50.14,48.29,50.2s48.47-22.31,48.53-50a51.33,51.33,0,0,0-2.07-14.66h0l0-.07c-.33-1.1-.69-2.18-1.09-3.25Z"/><path class="cls-1" d="M310.72,327.72l-34.07-27.58,6.12,41.67,13.17,87,1.39,5.89c0,.15.08.3.11.46l.24,1h0a50.83,50.83,0,0,0,5.11,12.7c13.71,24,44,32.55,67.73,19s31.82-43.95,18.11-68a50.42,50.42,0,0,0-9.13-11.66h0l-.06-.05c-.83-.79-1.7-1.55-2.58-2.27Z"/><path class="cls-1" d="M338.78,285.11l-43.36-6.46,26.44,32.79,55.53,68.24,4.19,4.37c.1.11.22.22.32.34l.72.74h0a50.9,50.9,0,0,0,10.85,8.35c24,13.73,54.46,5.67,68-18s5.08-54-18.93-67.76a50.71,50.71,0,0,0-13.79-5.41h-.06c-1.13-.26-2.26-.47-3.38-.65Z"/><path class="cls-1" d="M344.56,234.16l-40.73,16.55,39.33,15.4,82.31,31.81,5.81,1.7.46.14,1,.29v0a49.46,49.46,0,0,0,13.58,1.8A50.49,50.49,0,1,0,431,203.16h0l-.06,0c-1.1.35-2.18.74-3.25,1.16Z"/><path class="cls-1" d="M324.21,187.12l-27.09,34.49,41.6-6.67,86.85-14.31,5.86-1.46.46-.12,1-.25h0a50.52,50.52,0,0,0,12.63-5.29c23.84-14,31.9-44.52,18-68.1s-44.46-31.31-68.3-17.27a51.09,51.09,0,0,0-11.53,9.29h0l0,.06c-.78.84-1.52,1.72-2.23,2.61Z"/><path class="cls-1" d="M283.14,156.48,277,199.9l32.68-26.61,68-55.88,4.34-4.2.34-.33.74-.72h0a50.9,50.9,0,0,0,8.29-10.9c13.6-24.09,5.31-54.52-18.51-68s-54.16-4.84-67.77,19.25a50.87,50.87,0,0,0-5.32,13.82h0l0,.07c-.25,1.13-.45,2.25-.62,3.39Z"/><path class="cls-1" d="M232,151.37l15.8,40.85L263,153l31.54-82.07,1.7-5.79c.05-.15.09-.31.14-.46l.29-1h0a50.52,50.52,0,0,0,1.85-13.57C298.55,22.46,276.57,0,249.44,0S200.3,22.38,200.28,50a51.35,51.35,0,0,0,2.13,14.66h0l0,.07c.33,1.1.71,2.18,1.11,3.25Z"/><path class="cls-2" d="M669.8,288.7q-1.68-2.67-2.25-9.41V220.86q0-24.72-11.93-36t-39-11.23q-27.11,0-57.16,8.14l1.12,26.13,52.81-2.25q8.7,0,12.64,3.23t3.93,11.94v8.71l-30,2.24q-25,1.69-37.08,11.1T550.7,274.79q0,46.08,43.54,46.07A93.52,93.52,0,0,0,635.53,311a51.42,51.42,0,0,0,17.28,7.86q8.57,2,22.89,2l1.12-28.37C673.26,291.74,670.93,290.48,669.8,288.7Zm-39.89-2.95-4.21,1.12a90.87,90.87,0,0,1-23.31,3.37q-13.77,0-13.77-15.45t15.73-16.85l25.56-2.25Z"/><path class="cls-2" d="M775.14,282.09l-3.66,1.13a68.48,68.48,0,0,1-23.31,3.93q-12.93,0-16.29-7.58t-3.37-28.37V177H690.87v73.59q0,37.94,10.11,54.08t39.32,16.15q14.9,0,35.12-11.24v7.87h37.36V177H775.14Z"/><path class="cls-2" d="M873.73,177H836.37V317.49H874v-94.1l5.62-2q16.29-5.05,39-9.83V173.67q-21.34,4.22-44.94,18.26Z"/><path class="cls-2" d="M984.68,173.67q-62.08,0-62.08,75.56,0,37.92,14.33,54.78T983,320.86q26.12,0,58.42-7.87l-.56-27.81L1033,286q-20.5,1.68-46.63,1.68-12.36,0-19-5.76t-6.89-18.68h82.59l2.81-26.12Q1045.92,173.67,984.68,173.67Zm-24.44,61q.28-16.29,5.76-23.17t18.82-6.88q13.33,0,18.68,6.6t5.34,23.45Z"/><rect class="cls-2" x="1063.33" y="120.86" width="37.64" height="196.63"/></g></g></svg>