<svg xmlns="http://www.w3.org/2000/svg" viewBox="0 0 1691.14 500"><defs><style>.cls-1{fill-rule:evenodd;}</style></defs><g id="Calque_2" data-name="Calque 2"><g id="Calque_1-2" data-name="Calque 1"><path class="cls-1" d="M185.49,172.91l34.26,27.37-6.35-41.65L199.76,71.69l-1.42-5.88c0-.15-.08-.3-.11-.46l-.25-1h0a50.29,50.29,0,0,0-5.19-12.68c-13.84-23.94-44.25-32.26-67.91-18.58s-31.62,44.18-17.78,68.13a50.92,50.92,0,0,0,9.21,11.6h0l.06,0c.84.79,1.71,1.54,2.6,2.26Z"/><path class="cls-1" d="M155.71,213.88l43.3,6.67-26.36-32.82-55.37-68.31-4.18-4.37c-.1-.12-.21-.23-.32-.35l-.72-.74h0a50.92,50.92,0,0,0-10.84-8.37c-24-13.82-54.38-5.95-68,17.58S28.11,177,52.07,190.81a50.86,50.86,0,0,0,13.77,5.46h.07c1.12.26,2.24.48,3.37.66Z"/><path class="cls-1" d="M151.38,266.09l40.84-16.15L153,234.41,70.9,202.32l-5.8-1.73-.46-.14-1-.29h0a50.08,50.08,0,1,0,1.09,96.11h0l.06,0c1.11-.34,2.19-.72,3.26-1.14Z"/><path class="cls-1" d="M171.74,311.29,198.4,276.5l-41.49,7.24-86.6,15.51-5.84,1.55c-.16,0-.31.08-.46.12l-1,.26h0a50.87,50.87,0,0,0-12.56,5.46C26.8,321,19.09,351.52,33.23,374.84S78,405.45,101.66,391.11a50.88,50.88,0,0,0,11.42-9.44h0l0-.05c.77-.86,1.5-1.74,2.2-2.65Z"/><path class="cls-1" d="M212.75,343.29l5.69-43.48-32.37,27L118.7,383.41l-4.3,4.25-.33.34-.74.72h0a50.64,50.64,0,0,0-8.16,11c-13.33,24.24-4.71,54.58,19.26,67.76s54.21,4.23,67.54-20a50.47,50.47,0,0,0,5.17-13.88h0v-.08c.24-1.12.42-2.25.58-3.39Z"/><path class="cls-1" d="M264.24,348.66l-15.51-40.88L233.62,347,202.4,429l-1.68,5.79c-.05.15-.09.31-.13.46l-.29,1h0a51.73,51.73,0,0,0-1.84,13.56c-.07,27.66,21.55,50.14,48.29,50.2s48.47-22.31,48.53-50a51.33,51.33,0,0,0-2.07-14.66h0l0-.07c-.33-1.1-.69-2.18-1.09-3.25Z"/><path class="cls-1" d="M310.72,327.72l-34.07-27.58,6.12,41.67,13.17,87,1.39,5.89c0,.15.08.3.11.46l.24,1h0a50.83,50.83,0,0,0,5.11,12.7c13.71,24,44,32.55,67.73,19s31.82-43.95,18.11-68a50.42,50.42,0,0,0-9.13-11.66h0l-.06-.05c-.83-.79-1.7-1.55-2.58-2.27Z"/><path class="cls-1" d="M338.78,285.11l-43.36-6.46,26.44,32.79,55.53,68.24,4.19,4.37c.1.11.22.22.32.34l.72.74h0a50.9,50.9,0,0,0,10.85,8.35c24,13.73,54.46,5.67,68-18s5.08-54-18.93-67.76a50.71,50.71,0,0,0-13.79-5.41h-.06c-1.13-.26-2.26-.47-3.38-.65Z"/><path class="cls-1" d="M344.56,234.16l-40.73,16.55,39.33,15.4,82.31,31.81,5.81,1.7.46.14,1,.29v0a49.46,49.46,0,0,0,13.58,1.8A50.49,50.49,0,1,0,431,203.16h0l-.06,0c-1.1.35-2.18.74-3.25,1.16Z"/><path class="cls-1" d="M324.21,187.12l-27.09,34.49,41.6-6.67,86.85-14.31,5.86-1.46.46-.12,1-.25h0a50.52,50.52,0,0,0,12.63-5.29c23.84-14,31.9-44.52,18-68.1s-44.46-31.31-68.3-17.27a51.09,51.09,0,0,0-11.53,9.29h0l0,.06c-.78.84-1.52,1.72-2.23,2.61Z"/><path class="cls-1" d="M283.14,156.48,277,199.9l32.68-26.61,68-55.88,4.34-4.2.34-.33.74-.72h0a50.9,50.9,0,0,0,8.29-10.9c13.6-24.09,5.31-54.52-18.51-68s-54.16-4.84-67.77,19.25a50.87,50.87,0,0,0-5.32,13.82h0l0,.07c-.25,1.13-.45,2.25-.62,3.39Z"/><path class="cls-1" d="M232,151.37l15.8,40.85L263,153l31.54-82.07,1.7-5.79c.05-.15.09-.31.14-.46l.29-1h0a50.52,50.52,0,0,0,1.85-13.57C298.55,22.46,276.57,0,249.44,0S200.3,22.38,200.28,50a51.35,51.35,0,0,0,2.13,14.66h0l0,.07c.33,1.1.71,2.18,1.11,3.25Z"/><path d="M566.43,326.75l41.39-184h70.89l41.4,184H682.77l-7.31-33.27H611.07l-7.3,33.27Zm70.34-153.13L618.11,261h50.32l-18.67-87.39Z"/><path d="M802.63,191.47h36.25V326.75h-36v-7.57Q783.42,330,769.08,330q-28.16,0-37.88-15.56t-9.74-52.08V191.47h36.25V262.9q0,20,3.25,27.33t15.69,7.3a66.11,66.11,0,0,0,22.46-3.78l3.52-1.09Z"/><path d="M853.76,326.75V191.47h36v14.34Q912.47,192.3,933,188.23v36.52q-21.91,4.6-37.61,9.47l-5.41,1.9v90.63Z"/><path d="M972.13,292.53q6.36,5.55,18.26,5.54,25.17,0,44.92-1.62l7.57-.81.54,26.79Q1012.31,330,987.15,330q-30.58,0-44.38-16.23T929,261q0-72.78,59.79-72.78,59,0,59,61.14l-2.7,25.17H965.5Q965.77,287,972.13,292.53ZM1012,246.94q0-16.23-5.14-22.59t-18-6.36q-12.85,0-18.13,6.63t-5.55,22.32Z"/><path d="M1056.68,326.75V137.36h36.26V326.75Z"/><path d="M1189.79,249.64V231h51.68v92q-34.1,6.5-60.88,6.49-40.85,0-56.68-23.54t-15.83-72.64q0-49.11,15.83-72.79t56.14-23.67a266,266,0,0,1,52.22,5.41l9.2,1.62-.81,17.32q-33.56-5.68-58.17-5.68-31.12,0-41.94,18t-10.82,59.8q0,41.79,10.82,59.79t41.67,18a204.84,204.84,0,0,0,38.69-3.79V249.64Z"/><path d="M1260.14,326.75V191.47h20v18.4a131.85,131.85,0,0,1,49.51-21.37v20.56a147.29,147.29,0,0,0-23.67,6.76,157.23,157.23,0,0,0-18.8,8.12l-6.77,3.52v99.29Z"/><path d="M1326.43,258.84q0-37.06,13.25-53.57t44.78-16.5q31.51,0,44.65,16.5t13.12,53.57q0,37.08-12.45,53.85t-45.45,16.77q-33,0-45.46-16.77T1326.43,258.84Zm20.83-.4q0,29.63,7.17,41.53t30,11.9q22.86,0,29.9-11.77t7-41.53q0-29.76-7.84-41t-29.09-11.23q-21.24,0-29.22,11.23T1347.26,258.44Z"/><path d="M1541,191.47h20.3V326.75H1541v-9.47q-20.28,12.18-40,12.18-27.6,0-36.66-14.34t-9.07-53V191.47h20.3v70.35q0,29.49,5.14,39.5t23.27,10a66.84,66.84,0,0,0,18.12-2.57,82.74,82.74,0,0,0,14.07-5l4.87-2.44Z"/><path d="M1581.57,386.82V191.47h20v9.74q20.55-12.44,40.58-12.44,25.71,0,37.34,16.37t11.63,54q0,37.62-13.66,54t-45.32,16.37a143.46,143.46,0,0,1-30.3-3v60.34Zm57.63-179.93a63.08,63.08,0,0,0-17.46,2.71A90.89,90.89,0,0,0,1607,215l-5.14,2.71V308.9q19.2,3,29.22,3,21.92,0,30.71-12.44t8.79-40.59q0-28.12-8-40T1639.2,206.89Z"/></g></g></svg>