<svg xmlns="http://www.w3.org/2000/svg" viewBox="0 0 134.07 50"><defs><style>.cls-1{fill-rule:evenodd;}</style></defs><g id="Calque_2" data-name="Calque 2"><g id="Calque_1-2" data-name="Calque 1"><g id="izrom"><path class="cls-1" d="M24.77,19a1.55,1.55,0,0,1-.43-.77c-.68-1.94-1.45-4-2.13-6C21.62,10.51,21,8.84,20.38,7.1a5.14,5.14,0,0,1-.46-1.86,5.21,5.21,0,0,1,1.19-3.48,4.9,4.9,0,0,1,8.52,2c.51,2.07-.41,3.61-1,5.16-1.18,3.19-2.22,6.28-3.45,9.43A1.63,1.63,0,0,1,24.77,19Z"/><path class="cls-1" d="M21.9,20a5.6,5.6,0,0,1-1.43-1c-1.34-1.09-2.58-2.35-4-3.42-1.2-1.06-2.68-2.29-4-3.42-1-.87-2.13-1.73-2.44-3.27a6.93,6.93,0,0,1,0-2.53,4.47,4.47,0,0,1,.73-1.62,5.07,5.07,0,0,1,3.66-2.11A4.88,4.88,0,0,1,19.15,5a10.92,10.92,0,0,1,1,3.57c.47,2.56.85,5.13,1.31,7.67.12.64.23,1.3.34,1.92A4.53,4.53,0,0,1,21.9,20Z"/><path class="cls-1" d="M27.61,20.07a15.22,15.22,0,0,1,.49-3.51c.52-2.87,1-5.84,1.59-8.73A14,14,0,0,1,30,6.12a5,5,0,0,1,5.19-3.36,5.12,5.12,0,0,1,3.33,1.83,4.89,4.89,0,0,1,1.1,3.61c-.19,2.58-2,3.59-3.63,4.88-.4.33-.72.72-1.1,1.07s-.82.62-1.19.95c-1.59,1.35-3.19,2.67-4.67,4C28.54,19.37,28.26,19.91,27.61,20.07Z"/><path class="cls-1" d="M19.8,22a7.81,7.81,0,0,1-2-.28c-2.05-.29-4.09-.73-6.14-1.07-1.3-.21-2.68-.55-4-.79a5.79,5.79,0,0,1-3.35-1.43,4.94,4.94,0,0,1-.49-6.87A5.06,5.06,0,0,1,7.22,9.85c2.41-.17,3.65,1.2,4.7,2.47,2.21,2.68,4.8,5.52,6.9,8.27a7.22,7.22,0,0,0,.58.68C19.57,21.47,19.83,21.71,19.8,22Z"/><path class="cls-1" d="M29.66,22.09a1.49,1.49,0,0,1,.46-.79c.54-.66,1.15-1.33,1.7-2,.72-.91,1.53-1.76,2.26-2.69s1.53-1.79,2.29-2.68c.38-.43.78-.87,1.16-1.32a12.5,12.5,0,0,1,1.17-1.31,5.26,5.26,0,0,1,3-1.19,4.92,4.92,0,0,1,3.91,1.62,5.46,5.46,0,0,1,1,5.1A5.2,5.2,0,0,1,42.85,20c-1.35.32-2.93.49-4.4.74-2.23.36-4.37.8-6.6,1.12A9.68,9.68,0,0,1,29.66,22.09Z"/><path class="cls-1" d="M19.15,25c-.12.28-.47.35-.73.43-.85.25-1.7.62-2.56.91-2.85,1-5.63,2-8.58,3a7.07,7.07,0,0,1-1.83.48A5.15,5.15,0,0,1,.62,27.25a5.09,5.09,0,0,1,2-6.84,4.92,4.92,0,0,1,2.56-.61,12,12,0,0,1,3.69,1.1c1.15.44,2.26.94,3.42,1.37,1.79.67,3.47,1.33,5.23,2A5.48,5.48,0,0,1,19.15,25Z"/><path class="cls-1" d="M30.27,25a29.93,29.93,0,0,1,3.39-1.28c1.13-.42,2.23-.9,3.39-1.29,2.36-.77,4.49-1.84,7.08-2.25a4.9,4.9,0,0,1,4.61,2.35,5,5,0,0,1,.7,2.65,5.4,5.4,0,0,1-.73,2.54,5,5,0,0,1-4.92,2.35A8.55,8.55,0,0,1,42,29.57c-.58-.2-1.15-.44-1.68-.64-1.21-.48-2.28-.82-3.39-1.25-1.71-.67-3.35-1.24-5-1.93-.27-.11-.58-.21-.86-.3S30.38,25.33,30.27,25Z"/><path class="cls-1" d="M19.7,27.89c0,.32-.28.54-.45.76-2.34,2.87-4.76,5.72-7.24,8.52a8,8,0,0,1-2.2,2,5.31,5.31,0,0,1-5-.31,4.88,4.88,0,0,1-2.19-4.09A5,5,0,0,1,5,30.58a10.57,10.57,0,0,1,3.33-.89c1.23-.23,2.47-.37,3.63-.58,2.57-.47,4.83-.88,7.17-1.25C19.26,27.84,19.57,27.77,19.7,27.89Z"/><path class="cls-1" d="M29.81,27.89c2.27.38,4.68.76,6.9,1.25,1.18.26,2.31.42,3.42.64a25.34,25.34,0,0,1,3.36.68,4.94,4.94,0,0,1-.09,9.25,5.34,5.34,0,0,1-4.22-.43,11,11,0,0,1-2.56-2.66c-.82-1-1.61-1.93-2.35-2.84-1.08-1.32-2.35-2.83-3.54-4.27-.17-.2-.37-.45-.58-.73s-.47-.56-.43-.83A.2.2,0,0,1,29.81,27.89Z"/><path class="cls-1" d="M21.72,30c.3,0,.24.34.18.79-.13.94-.3,1.47-.49,2.66-.22,1.37-.43,2.36-.64,3.54-.34,1.93-.6,3.52-.94,5.37a9.18,9.18,0,0,1-.4,1.68,5.18,5.18,0,0,1-4.06,3.24,4.93,4.93,0,0,1-4.43-1.74,5.27,5.27,0,0,1-1.07-3.7c.24-2.62,1.77-3.46,3.45-4.88,2.34-2,4.54-3.85,6.93-5.8A14.54,14.54,0,0,1,21.66,30S21.68,30,21.72,30Z"/><path class="cls-1" d="M27.52,30c.05,0,.08-.05.09,0A9.08,9.08,0,0,1,29,31.13c1.34,1.12,2.66,2.37,4,3.45,1.84,1.52,3.56,3.07,5.22,4.64a5.19,5.19,0,0,1,1.13,3.54,5,5,0,0,1-2.72,4.09c-1.64.82-4,.7-5.19-.49A5.69,5.69,0,0,1,30,44.65a13.6,13.6,0,0,1-.82-3.51c-.52-3.1-1.06-6.12-1.56-9.25A7.79,7.79,0,0,1,27.49,30Z"/><path class="cls-1" d="M24.68,30.64h.06a7.8,7.8,0,0,1,.83,2.2c.22.74.53,1.46.79,2.19.8,2.22,1.51,4.48,2.29,6.72a20.52,20.52,0,0,1,.67,2.32,4.82,4.82,0,0,1-2.69,5.41,4.6,4.6,0,0,1-1.86.52,4.91,4.91,0,0,1-4.46-2.6,4.76,4.76,0,0,1-.58-2.29,13.52,13.52,0,0,1,1-3.85c.86-2.38,1.69-4.56,2.57-7,.28-.81.62-1.79.94-2.66a2.49,2.49,0,0,1,.37-.85A.15.15,0,0,1,24.68,30.64Z"/></g><path d="M61,20.76l-.75-3.08q.72-.18,1.62-.33c.52-.08,1.14-.15,1.85-.22s1.5-.11,2.38-.11a14.71,14.71,0,0,1,1.81.12,11,11,0,0,1,1.86.4,5.13,5.13,0,0,1,1.55.78,2.37,2.37,0,0,1,.88,1.21c.21.72.37,1.38.5,2l.36,1.8c.11.6.23,1.22.34,1.87s.27,1.39.46,2.23l.75,1.73L76.49,29,77,30.94,75.27,32.2H70.52l-.91-1.65a3.55,3.55,0,0,1-1,.77,8.62,8.62,0,0,1-1.19.5,8.34,8.34,0,0,1-1.11.29,5,5,0,0,1-.77.09H59.32a8.49,8.49,0,0,1-.9-1.26A3.62,3.62,0,0,1,58,29.09a6.88,6.88,0,0,1,.17-1.45,7.82,7.82,0,0,1,.5-1.48,7.11,7.11,0,0,1,.8-1.33,4.4,4.4,0,0,1,1.07-1l7.51-1-.19-1.59-1.13-1.7Zm1.62,7.39a2.43,2.43,0,0,0,.82,2c.56,0,1.12-.11,1.69-.2s1.09-.19,1.59-.31.95-.25,1.35-.38.71-.24.94-.34l-.63-4.06L63.51,26A5,5,0,0,0,62.66,28.15Z"/><path d="M93.24,19.92c0,1,0,2.09,0,3.17s0,2.1,0,3.09v2.43l-3.85,3.68H81.59l-3.53-2.81V19.8L75.9,18.63l.78-1.37h5.89l0,10.84,1.09,2.19L87.26,30l1.31-2.21,0-8.16-.29-.21-.41-.31-.38-.3a1.4,1.4,0,0,0-.23-.16V17.26h5.95Z"/><path d="M100.45,26.39c0,1.32,0,2.57,0,3.75l1.38.5c0,.26,0,.52,0,.77s0,.51,0,.79H95.93c0-.3,0-.71,0-1.24s0-1.12,0-1.78,0-1.35,0-2.08V19.56l-1.6-.95.75-1.35h5l.19,2.75a17.37,17.37,0,0,1,2-1.55,10.93,10.93,0,0,1,1.83-1.06,4.35,4.35,0,0,1,1.83-.47,4.83,4.83,0,0,1,1.47.21,9.35,9.35,0,0,1,1.16.46,5.48,5.48,0,0,1,.83.51l.45.35-1.19,3.19-4.07-.89a4.37,4.37,0,0,0-1,.31c-.4.17-.81.35-1.22.55s-.77.4-1.11.6l-.75.45C100.43,23.82,100.44,25.06,100.45,26.39Z"/><path d="M114.94,29.11a4.49,4.49,0,0,0,3.39,1.38,4.1,4.1,0,0,0,1.82-1.19c.5-.56,1-1.21,1.62-1.94l3.51,1.22a2.35,2.35,0,0,1-.44.82,7.9,7.9,0,0,1-1,1.2,7.57,7.57,0,0,1-1.44,1.09,3.26,3.26,0,0,1-1.55.51h-7.66a2.52,2.52,0,0,1-1.71-.94,9.8,9.8,0,0,1-1.58-2.33,12,12,0,0,1-1-3,6.19,6.19,0,0,1,0-2.85c.11-.34.28-.8.53-1.38a9.58,9.58,0,0,1,1-1.75A8,8,0,0,1,112,18.37a4.92,4.92,0,0,1,2.16-1c.56-.1,1.24-.18,2-.24a23.89,23.89,0,0,1,2.4-.06,17.27,17.27,0,0,1,2.25.2,4,4,0,0,1,1.58.52,5.27,5.27,0,0,1,1,.94,7.45,7.45,0,0,1,.94,1.42,8.8,8.8,0,0,1,.69,1.73,7.52,7.52,0,0,1,.3,1.85l-2.1,1.65-9.45.5A5.71,5.71,0,0,0,114.94,29.11Zm5.38-6.88c-.14-.46-.3-.95-.5-1.46a11.62,11.62,0,0,0-.63-1.36c-.22-.4-.42-.61-.61-.63a3,3,0,0,0-.8.06c-.32.06-.65.14-1,.23s-.67.19-1,.3a4.9,4.9,0,0,0-.75.31,2.15,2.15,0,0,0-.44.66,8.82,8.82,0,0,0-.41,1,11.13,11.13,0,0,0-.3,1.17,6.36,6.36,0,0,0-.11,1.07l6.76-.41A6.83,6.83,0,0,0,120.32,22.23Z"/><path d="M131.85,29.69l2.22.63V32.2H127.5l.06-18.43-2.41-1,.41-1.43h6.29Z"/></g></g></svg>