<svg xmlns="http://www.w3.org/2000/svg" viewBox="0 0 1189.21 500"><defs><style>.cls-1{fill-rule:evenodd;}.cls-2{stroke:#000;stroke-miterlimit:10;stroke-width:4px;}</style></defs><g id="Calque_2" data-name="Calque 2"><g id="Calque_1-2" data-name="Calque 1"><path class="cls-1" d="M185.49,172.91l34.26,27.37-6.35-41.65L199.76,71.69l-1.42-5.88c0-.15-.08-.3-.11-.46l-.25-1h0a50.29,50.29,0,0,0-5.19-12.68c-13.84-23.94-44.25-32.26-67.91-18.58s-31.62,44.18-17.78,68.13a50.92,50.92,0,0,0,9.21,11.6h0l.06,0c.84.79,1.71,1.54,2.6,2.26Z"/><path class="cls-1" d="M155.71,213.88l43.3,6.67-26.36-32.82-55.37-68.31-4.18-4.37c-.1-.12-.21-.23-.32-.35l-.72-.74h0a50.92,50.92,0,0,0-10.84-8.37c-24-13.82-54.38-5.95-68,17.58S28.11,177,52.07,190.81a50.86,50.86,0,0,0,13.77,5.46h.07c1.12.26,2.24.48,3.37.66Z"/><path class="cls-1" d="M151.38,266.09l40.84-16.15L153,234.41,70.9,202.32l-5.8-1.73-.46-.14-1-.29h0a50.08,50.08,0,1,0,1.09,96.11h0l.06,0c1.11-.34,2.19-.72,3.26-1.14Z"/><path class="cls-1" d="M171.74,311.29,198.4,276.5l-41.49,7.24-86.6,15.51-5.84,1.55c-.16,0-.31.08-.46.12l-1,.26h0a50.87,50.87,0,0,0-12.56,5.46C26.8,321,19.09,351.52,33.23,374.84S78,405.45,101.66,391.11a50.88,50.88,0,0,0,11.42-9.44h0l0-.05c.77-.86,1.5-1.74,2.2-2.65Z"/><path class="cls-1" d="M212.75,343.29l5.69-43.48-32.37,27L118.7,383.41l-4.3,4.25-.33.34-.74.72h0a50.64,50.64,0,0,0-8.16,11c-13.33,24.24-4.71,54.58,19.26,67.76s54.21,4.23,67.54-20a50.47,50.47,0,0,0,5.17-13.88h0v-.08c.24-1.12.42-2.25.58-3.39Z"/><path class="cls-1" d="M264.24,348.66l-15.51-40.88L233.62,347,202.4,429l-1.68,5.79c-.05.15-.09.31-.13.46l-.29,1h0a51.73,51.73,0,0,0-1.84,13.56c-.07,27.66,21.55,50.14,48.29,50.2s48.47-22.31,48.53-50a51.33,51.33,0,0,0-2.07-14.66h0l0-.07c-.33-1.1-.69-2.18-1.09-3.25Z"/><path class="cls-1" d="M310.72,327.72l-34.07-27.58,6.12,41.67,13.17,87,1.39,5.89c0,.15.08.3.11.46l.24,1h0a50.83,50.83,0,0,0,5.11,12.7c13.71,24,44,32.55,67.73,19s31.82-43.95,18.11-68a50.42,50.42,0,0,0-9.13-11.66h0l-.06-.05c-.83-.79-1.7-1.55-2.58-2.27Z"/><path class="cls-1" d="M338.78,285.11l-43.36-6.46,26.44,32.79,55.53,68.24,4.19,4.37c.1.11.22.22.32.34l.72.74h0a50.9,50.9,0,0,0,10.85,8.35c24,13.73,54.46,5.67,68-18s5.08-54-18.93-67.76a50.71,50.71,0,0,0-13.79-5.41h-.06c-1.13-.26-2.26-.47-3.38-.65Z"/><path class="cls-1" d="M344.56,234.16l-40.73,16.55,39.33,15.4,82.31,31.81,5.81,1.7.46.14,1,.29v0a49.46,49.46,0,0,0,13.58,1.8A50.49,50.49,0,1,0,431,203.16h0l-.06,0c-1.1.35-2.18.74-3.25,1.16Z"/><path class="cls-1" d="M324.21,187.12l-27.09,34.49,41.6-6.67,86.85-14.31,5.86-1.46.46-.12,1-.25h0a50.52,50.52,0,0,0,12.63-5.29c23.84-14,31.9-44.52,18-68.1s-44.46-31.31-68.3-17.27a51.09,51.09,0,0,0-11.53,9.29h0l0,.06c-.78.84-1.52,1.72-2.23,2.61Z"/><path class="cls-1" d="M283.14,156.48,277,199.9l32.68-26.61,68-55.88,4.34-4.2.34-.33.74-.72h0a50.9,50.9,0,0,0,8.29-10.9c13.6-24.09,5.31-54.52-18.51-68s-54.16-4.84-67.77,19.25a50.87,50.87,0,0,0-5.32,13.82h0l0,.07c-.25,1.13-.45,2.25-.62,3.39Z"/><path class="cls-1" d="M232,151.37l15.8,40.85L263,153l31.54-82.07,1.7-5.79c.05-.15.09-.31.14-.46l.29-1h0a50.52,50.52,0,0,0,1.85-13.57C298.55,22.46,276.57,0,249.44,0S200.3,22.38,200.28,50a51.35,51.35,0,0,0,2.13,14.66h0l0,.07c.33,1.1.71,2.18,1.11,3.25Z"/><path class="cls-2" d="M689.85,289.39q-2-2.67-2.59-9.41V221.55q0-24.72-13.77-36t-45-11.24q-31.28,0-65.94,8.15l1.3,26.12,60.91-2.25q10,0,14.58,3.23t4.54,11.94v8.71l-34.67,2.25q-28.84,1.68-42.77,11.09t-13.93,31.88q0,46.08,50.22,46.07a121.65,121.65,0,0,0,47.63-9.83,64.38,64.38,0,0,0,19.93,7.87q9.87,1.95,26.4,2l1.3-28.37C693.84,292.43,691.15,291.17,689.85,289.39Zm-46-2.95L639,287.56a119.89,119.89,0,0,1-26.89,3.37q-15.89,0-15.88-15.45t18.14-16.85l29.49-2.25Z"/><path class="cls-2" d="M811.35,282.79l-4.21,1.12a89.73,89.73,0,0,1-26.89,3.93q-14.91,0-18.8-7.58t-3.88-28.37V177.73H714.15v73.6q0,37.92,11.66,54.07t45.36,16.15q17.18,0,40.51-11.23v7.86h43.09V177.73H811.35Z"/><path class="cls-2" d="M925.08,177.73H882V318.18H925.4v-94.1l6.48-2q18.79-5.06,45-9.83V174.36q-24.63,4.21-51.84,18.26Z"/><path class="cls-2" d="M1053.07,174.36q-71.62,0-71.61,75.56,0,37.92,16.52,54.78t53.14,16.85q30.14,0,67.4-7.86l-.65-27.81-9.07.84q-23.65,1.68-53.79,1.68-14.27,0-21.87-5.75T1025.2,264h95.26l3.24-26.13Q1123.7,174.36,1053.07,174.36Zm-28.19,61q.31-16.29,6.64-23.18t21.71-6.88q15.38,0,21.54,6.6t6.16,23.46Z"/><rect class="cls-2" x="1143.79" y="121.55" width="43.42" height="196.63"/></g></g></svg>