<svg xmlns="http://www.w3.org/2000/svg" viewBox="0 0 114.79 47"><defs><style>.cls-1{fill-rule:evenodd;}</style></defs><g id="Calque_2" data-name="Calque 2"><g id="Calque_1-2" data-name="Calque 1"><path class="cls-1" d="M17.44,16.25l3.22,2.58-.6-3.92L18.78,6.74l-.14-.55V6.14l0-.09h0a4.9,4.9,0,0,0-.49-1.19,4.65,4.65,0,1,0-8,4.66,4.87,4.87,0,0,0,.86,1.09h0l.24.21Z"/><path class="cls-1" d="M14.64,20.1l4.07.63-2.48-3.08L11,11.23l-.39-.42,0,0-.07-.07h0a4.61,4.61,0,0,0-1-.78,4.63,4.63,0,1,0-4.63,8,4.75,4.75,0,0,0,1.3.51h0a1.7,1.7,0,0,0,.31.06Z"/><path class="cls-1" d="M14.23,25l3.84-1.52L14.38,22,6.66,19l-.54-.16,0,0-.1,0H6a4.43,4.43,0,0,0-1.27-.18,4.71,4.71,0,0,0,0,9.42,4.85,4.85,0,0,0,1.38-.21h0l.31-.11Z"/><path class="cls-1" d="M16.14,29.26,18.65,26l-3.9.68L6.61,28.13l-.55.14,0,0-.1,0h0a5.54,5.54,0,0,0-1.18.51,4.64,4.64,0,1,0,4.82,7.94,4.57,4.57,0,0,0,1.07-.88h0a2.52,2.52,0,0,0,.21-.25Z"/><path class="cls-1" d="M20,32.27l.53-4.09-3,2.54L11.16,36l-.41.4,0,0-.07.07h0a4.9,4.9,0,0,0-.76,1,4.66,4.66,0,1,0,8.64,3.19h0a3,3,0,0,0,.06-.32Z"/><path class="cls-1" d="M24.84,32.77l-1.46-3.84L22,32.62,19,40.33l-.16.54v0l0,.1h0a4.81,4.81,0,0,0-.17,1.27,4.55,4.55,0,1,0,9.1,0,4.85,4.85,0,0,0-.2-1.38h0a2.81,2.81,0,0,0-.1-.31Z"/><path class="cls-1" d="M29.21,30.81,26,28.21l.57,3.92,1.24,8.18.13.55v0l0,.1h0a4.87,4.87,0,0,0,.48,1.19,4.64,4.64,0,1,0,7.21-5.7h0l-.24-.21Z"/><path class="cls-1" d="M31.85,26.8l-4.08-.61,2.48,3.09,5.22,6.41.4.41,0,0,.07.07h0A4.48,4.48,0,0,0,37,37a4.65,4.65,0,1,0,4.61-8.07,4.92,4.92,0,0,0-1.3-.5h0L40,28.35Z"/><path class="cls-1" d="M32.39,22l-3.83,1.56L32.26,25,40,28l.55.16,0,0,.1,0h0a4.1,4.1,0,0,0,1.27.17,4.75,4.75,0,0,0-.06-9.49,4.53,4.53,0,0,0-1.38.22h0l-.31.11Z"/><path class="cls-1" d="M30.48,17.59l-2.55,3.24,3.91-.63L40,18.86l.55-.14h.05l.09,0h0a4.93,4.93,0,0,0,1.19-.5,4.66,4.66,0,1,0-4.73-8,4.89,4.89,0,0,0-1.08.88h0l-.21.25Z"/><path class="cls-1" d="M26.61,14.71,26,18.79l3.08-2.5L35.5,11l.41-.4,0,0,.07-.07h0a5.29,5.29,0,0,0,.78-1,4.66,4.66,0,1,0-8.11-4.58,4.6,4.6,0,0,0-.5,1.3h0c0,.11,0,.22-.05.32Z"/><path class="cls-1" d="M21.8,14.23l1.49,3.84,1.43-3.69,3-7.71.16-.55v0l0-.09h0a4.94,4.94,0,0,0,.17-1.28,4.62,4.62,0,1,0-9.23,0A4.8,4.8,0,0,0,19,6.08h0c0,.1.06.2.1.3Z"/><path d="M52.19,27.11c0-.16,0-.31,0-.46a3.84,3.84,0,0,1,.76-2,3.72,3.72,0,0,1,1.51-1,7.7,7.7,0,0,1,2.27-.55c.93-.1,1.87-.15,2.81-.22l1.51-.1h.06a4.44,4.44,0,0,0-.08-1.26.8.8,0,0,0-.52-.54,3.41,3.41,0,0,0-1.23-.15l-2.3.09L54,21h-.71l-.15-2.9.56-.12a27.87,27.87,0,0,1,5.06-.69,17,17,0,0,1,2.47,0,7.7,7.7,0,0,1,2.06.47,3.62,3.62,0,0,1,2.29,2.64,6,6,0,0,1,.19,1.51v5.73a4.63,4.63,0,0,0,.12.73.5.5,0,0,0,.36.38,3.62,3.62,0,0,0,.47.13l.11,0L66.71,32h-.06a16.29,16.29,0,0,1-2.42-.14,6.24,6.24,0,0,1-2.15-.74.21.21,0,0,0-.23,0,12.1,12.1,0,0,1-4.11.88,7.79,7.79,0,0,1-2.63-.28A3.77,3.77,0,0,1,52.77,30a4.87,4.87,0,0,1-.54-1.86c0-.17,0-.34,0-.51Zm9,1.15V25.69h-.07l-2,.15c-.37,0-.74.07-1.11.14a1.21,1.21,0,0,0-.93.75,1.82,1.82,0,0,0-.07,1,1,1,0,0,0,.88.9,5.84,5.84,0,0,0,.83,0A12.59,12.59,0,0,0,61.14,28.26Z"/><path d="M114.79,31.72h-4.65V12.06h4.65Z"/><path d="M108.23,26.41h-9.3c0,.08,0,.15,0,.22a1.82,1.82,0,0,0,1.54,1.65,4.61,4.61,0,0,0,1,.12c1.18,0,2.36,0,3.54-.06,1,0,1.93-.12,2.9-.19H108l.08,3.1-.94.18c-1,.16-1.9.32-2.86.44a21.25,21.25,0,0,1-4,.15,8.56,8.56,0,0,1-2.73-.59,4.78,4.78,0,0,1-2.79-3,9.14,9.14,0,0,1-.47-2.37,14,14,0,0,1,0-2.42,8.24,8.24,0,0,1,.87-3.26,5.58,5.58,0,0,1,3.31-2.73,9,9,0,0,1,2.3-.4,12.07,12.07,0,0,1,2.75.15,6.91,6.91,0,0,1,2.55.91,5,5,0,0,1,2.18,2.93,7.42,7.42,0,0,1,.31,2.43c0,.4-.09.8-.14,1.2l-.18,1.48A.11.11,0,0,0,108.23,26.41ZM104,23.2a.13.13,0,0,0,0-.06,4.46,4.46,0,0,0-.19-1.25,1.49,1.49,0,0,0-1.11-1.08,4.68,4.68,0,0,0-2.35,0,1.53,1.53,0,0,0-1.1.86,4.63,4.63,0,0,0-.25.8,6.15,6.15,0,0,0-.1.75Z"/><path d="M68,17.57h4.65V25.2a9,9,0,0,0,.17,1.94c0,.06,0,.12,0,.18a1.17,1.17,0,0,0,1,1,5.51,5.51,0,0,0,1.57,0,9.64,9.64,0,0,0,2-.39c.05,0,.09,0,.08-.11a.27.27,0,0,1,0-.09V17.57h4.64V31.71H77.6v-.64l-.17.07a10.7,10.7,0,0,1-2.59.82,7.36,7.36,0,0,1-2,0,7.26,7.26,0,0,1-1.79-.34,3.69,3.69,0,0,1-2.41-2.36,9.17,9.17,0,0,1-.49-2.18A21.94,21.94,0,0,1,68,24.57v-7Z"/><path d="M84.5,31.71V17.57h4.6V18.9a17.35,17.35,0,0,1,5.09-1.7v4a.13.13,0,0,1-.12.15l-3.84.81c-.33.07-.65.18-1,.27-.09,0-.11,0-.11.14v9.15Z"/></g></g></svg>