<svg xmlns="http://www.w3.org/2000/svg" viewBox="0 0 133.5 50"><defs><style>.cls-1{fill-rule:evenodd;}</style></defs><g id="Calque_2" data-name="Calque 2"><g id="Calque_1-2" data-name="Calque 1"><g id="ilmarinen_elakevakuutus"><path class="cls-1" d="M25.55,2.2c.55-.21.84-.74,1.22-1.13a4.38,4.38,0,0,1,1.32-1c.57.23.73.76,1.1,1.29a4.7,4.7,0,0,1,.46.73c.13.27.28.62.55.64s.49-.26.7-.43a7.27,7.27,0,0,1,1.37-.88c.22-.12.52-.37.77-.34s.4.46.52.76a13.28,13.28,0,0,0,.91,2.27c1.15-.24,1.84-.94,3.06-1.1.27.07.39.38.46.67a8.07,8.07,0,0,1,.21.88c.1.67-.07,1.47.37,1.84,1-.08,2-.69,3.09-.49.59.72.05,2.39.24,3.24.37.18,1.08,0,1.65,0s1.51,0,1.71.21,0,1.16-.09,1.53c-.12.55-.44,1-.37,1.44s1.07.42,1.59.52,1.39.2,1.53.55c.23.54-.32,1.27-.49,1.65-.26.58-.51,1-.73,1.43.11.31.47.38.76.46s.6.16.92.28,1.4.46,1.5.88a1.41,1.41,0,0,1-.34.95c-.18.27-.35.55-.52.76s-.82.65-.79,1.07c0,.26.37.41.64.55l.76.43c.48.29,1.24.7,1.25,1.13s-.63.94-.94,1.26c-.13.13-.34.32-.58.52s-.54.37-.55.55c0,.36.74.76,1,1s1.12,1,1.1,1.44-1,.88-1.26,1.07-1.38.54-1.43.89.84.89.88,1.28c.25.45.83.92.74,1.38s-1,.66-1.41.82c-.28.1-1.49.32-1.56.64s.23.61.37.86a8.61,8.61,0,0,1,.67,1.5c.09.24.22.54.12.76-.16.38-1.63.62-2.14.67s-.87-.06-1.1.28c.05.49.18.9.31,1.53.08.41.4,1.22.15,1.62s-1.21.28-1.74.27-1.36-.25-1.77.06c-.11.61.1,1.68,0,2.42,0,.26-.14.81-.4.91a1.86,1.86,0,0,1-.83-.06c-.88-.13-1.5-.35-2.29-.52-.27.12-.24.49-.27.77a7.23,7.23,0,0,1-.61,2.5,5,5,0,0,1-2.33-.82c-.19-.12-.54-.35-.76-.31s-.6,1.28-.7,1.56c-.19.48-.37,1.37-.8,1.44S32.2,49,32,48.84a10.82,10.82,0,0,1-1.38-1c-.17-.13-.44-.49-.67-.49s-.77,1-1,1.32-.59,1.19-1,1.22c-.26,0-.49-.31-.7-.49A7.51,7.51,0,0,1,26.1,48.2c-.18-.23-.33-.6-.58-.61s-.52.33-.71.58a7.27,7.27,0,0,1-1.19,1.34c-.19.17-.49.49-.76.49-.47,0-.93-.81-1.16-1.19-.12-.18-.62-1.4-.92-1.44s-.48.29-.73.49a11.56,11.56,0,0,1-1.44,1c-.28.16-.55.39-.83.36s-.67-.8-.82-1.16-.19-.58-.28-.85-.13-.69-.36-.77-1.13.47-1.53.61a3.26,3.26,0,0,1-1.68.43,6.08,6.08,0,0,1-.67-2.5c0-.31.06-.67-.19-.86-.47.06-.92.22-1.52.34s-1.26.36-1.69.12-.33-1.13-.3-1.68A11.61,11.61,0,0,0,8.86,41c-.32-.2-.83,0-1.37,0s-1.78,0-2-.25c-.2-1.17.44-2.16.52-3.15-.36-.36-1.06-.29-1.65-.39a3,3,0,0,1-1.5-.52,4.79,4.79,0,0,1,.79-2.27c.12-.18.35-.46.31-.7s-1.08-.53-1.47-.67-1.29-.32-1.37-.73.19-.64.3-.83a7.62,7.62,0,0,1,1-1.28c.13-.14.47-.42.46-.64s-.76-.54-1.1-.71A8.43,8.43,0,0,1,.61,28.3c-.18-.13-.6-.48-.61-.76s.86-1.05,1.13-1.29.41-.36.67-.55.61-.35.61-.58-.54-.57-.79-.76a7.78,7.78,0,0,0-.86-.67c-.23-.42-.7-.62-.67-1.1s.8-.79,1.32-1.07c.17-.1.47-.29.76-.43s.68-.26.7-.49-.81-1.06-1-1.28c-.28-.37-.81-1-.71-1.53s1-.68,1.35-.83a4.24,4.24,0,0,0,1.53-.61c-.24-1-1.17-1.8-1.11-3.14a3.45,3.45,0,0,1,1.5-.49,6.12,6.12,0,0,0,1.68-.31,18.59,18.59,0,0,0-.39-2.17,1.64,1.64,0,0,1,0-1C5.94,8.88,6.79,9,7.34,9a6.73,6.73,0,0,0,1.77.06c.21-.95-.36-2.77.33-3.48a11.15,11.15,0,0,1,3.15.61c.27-.17.19-.56.22-.86A12.56,12.56,0,0,1,13.05,4c.08-.45.16-.93.46-1.13a6.88,6.88,0,0,1,2.32.85c.23.12.48.38.74.34s.58-1.27.7-1.59c.18-.5.44-1.33.85-1.44a1.87,1.87,0,0,1,1,.34c.22.12.65.47.92.67s.58.66.92.64.4-.43.58-.76A5.86,5.86,0,0,1,23,0c.28-.13.45.16.68.34s.41.27.52.37C24.69,1.17,25,1.8,25.55,2.2ZM24.33,4.89c.1-.25.25-.56.4-.88a3,3,0,0,0,.36-.92c0-.35-.43-.87-.76-1.22S23.52.94,23.1,1a4,4,0,0,0-.85,1.1c-.27.43-.64.9-.58,1.38a2.21,2.21,0,0,0,.49.82,10.77,10.77,0,0,1,1,1.65c.15.3.2.68.52.83C24.07,6.26,24,5.57,24.33,4.89Zm3.57.89A15.22,15.22,0,0,1,29,4.28a2.24,2.24,0,0,0,.49-.79,2.46,2.46,0,0,0-.58-1.44c-.11-.2-.61-1.25-1-1.07s-.76.68-1.19,1.13c-.24.26-.59.61-.61.92a2.05,2.05,0,0,0,.3.88,10.72,10.72,0,0,1,.68,1.75,1.72,1.72,0,0,0,.33.88C27.72,6.41,27.76,6,27.9,5.78Zm-7.7.58c.07-.93.39-1.83.49-2.69a4.08,4.08,0,0,0-1.47-1.38c-.29-.19-.7-.52-.94-.33a5.51,5.51,0,0,0-1,2.66c.42.53.92,1,1.37,1.46.23.25.46.5.68.77s.33.65.7.73C20.3,7.26,20.17,6.77,20.2,6.36Zm11.49.43a25.17,25.17,0,0,1,2-2.11,4.68,4.68,0,0,0-.31-1.74c-.09-.27-.29-.93-.64-.95s-.57.25-.79.4c-.48.31-1.47.93-1.53,1.46a6,6,0,0,0,.25,1.23c.07.41.15.88.18,1.28s-.08.73.15,1C31.32,7.39,31.43,6.94,31.69,6.79ZM16.63,7.89a12.19,12.19,0,0,1-.06-2.84A6,6,0,0,0,14.52,3.7,1.39,1.39,0,0,0,14,3.61c-.38,0-.53,1-.58,1.31a3.94,3.94,0,0,0-.06,1.56c.09.25.53.43.85.61a10,10,0,0,1,1.62,1.19c.26.24.49.56.83.58C16.8,8.59,16.67,8.22,16.63,7.89ZM36.89,3.73a8.65,8.65,0,0,0-1.25.58c-.42.22-.92.4-1.07.77,0,.75,0,1.59-.07,2.38A6.41,6.41,0,0,0,34.38,9c.33-.06.54-.33.8-.52a13,13,0,0,1,1.56-1.13c.4-.24.85-.37,1-.74a7.27,7.27,0,0,0-.3-2.84A.76.76,0,0,0,36.89,3.73ZM30.23,6.6c0-.43-.14-1.88-.49-1.92s-.76.78-.92,1a11.49,11.49,0,0,0-.64,1.34,9.06,9.06,0,0,0-.52,1.44c-.13.49-.09,1.42-.55,1.44-.62,0-.34-.82-.34-1.44A11.43,11.43,0,0,0,26.44,6c-.17-.68-.43-1.69-.89-2-.27,0-.58.77-.73,1.16a9.92,9.92,0,0,0-.61,3.91c0,.45,0,.93-.46.79-.3-.07-.33-1.07-.43-1.49a8.4,8.4,0,0,0-1.07-2.78c-.17-.27-.58-1.1-.92-1s-.37.8-.43,1.22a10.27,10.27,0,0,0,0,3.09,8.2,8.2,0,0,1,.24,1.37.56.56,0,0,1-.52.18c-.32-.21-.31-.62-.43-.94a10,10,0,0,0-2-3.09c-.27-.3-.54-.72-1-.73a2.86,2.86,0,0,0-.12,1.62,9.14,9.14,0,0,0,.7,2.9c.17.41.54.86.3,1.31-.37.2-.56,0-.76-.36a10.76,10.76,0,0,0-2.48-2.85,2.8,2.8,0,0,0-1.34-.73c-.26.17-.13.52-.09.73a10.23,10.23,0,0,0,1.37,3.49c.16.25.8.82.77,1.19a.48.48,0,0,1-.46.37c-.27,0-.51-.42-.73-.64a9.57,9.57,0,0,0-1.53-1.26,9.36,9.36,0,0,0-1.65-1,1.68,1.68,0,0,0-1-.24,1.93,1.93,0,0,0,.3,1.25,18.18,18.18,0,0,0,2.08,3c.24.22.61.31.58.79-.21.4-.56.05-.82-.15a10.59,10.59,0,0,0-3.24-1.62,2.84,2.84,0,0,0-1.59-.18c0,.49.38.85.64,1.22a9.71,9.71,0,0,0,2.69,2.51c.24.14.72.33.73.64,0,.64-.73.33-1,.18a11.3,11.3,0,0,0-3.88-1c-.35,0-.88-.09-1.16.15,0,.25.21.46.37.62A10.24,10.24,0,0,0,9,19.87c.36.17,1.38.34,1.38.76,0,.6-.74.3-1.1.22a9,9,0,0,0-3.79-.13c-.3.08-.64.08-.83.34.26.48.81.66,1.2,1A9.07,9.07,0,0,0,8.49,23a2.9,2.9,0,0,1,1.23.37c.27.88-.5.73-1.2.73a13.19,13.19,0,0,0-2.81.4c-.59.11-1.18.23-1.4.67a2.7,2.7,0,0,0,1.07.58,7.5,7.5,0,0,0,2.72.58c.48,0,1.29-.15,1.52.1a.72.72,0,0,1,0,.76,12.64,12.64,0,0,1-1.4.31,11.36,11.36,0,0,0-2.6.88c-.33.17-1,.52-1,.77s1.38.48,1.71.52a12.78,12.78,0,0,0,2.14.09c.41,0,1.83-.62,1.81,0,0,.38-.93.5-1.38.67A9.71,9.71,0,0,0,6.35,32c-.38.29-.87.59-.94,1.07.24.25.76.15,1.22.15a8.79,8.79,0,0,0,3.27-.46c.21-.07,1.49-.86,1.56-.27,0,.29-.3.39-.52.52a12,12,0,0,0-1.87,1.34A9.29,9.29,0,0,0,7.58,36c-.14.21-.38.44-.34.74a1.93,1.93,0,0,0,1.38,0,11,11,0,0,0,3.51-1.5c.27-.19.77-.86,1-.22-.11.37-.45.56-.67.83a5.32,5.32,0,0,1-.74.76,11.94,11.94,0,0,0-.95,1.5,3.84,3.84,0,0,0-.67,1.74c.39.16.77-.11,1.1-.24a7.92,7.92,0,0,0,1.07-.4c.56-.3,1-.81,1.47-1.1a3.86,3.86,0,0,1,.64-.64c.18-.17.45-.6.73-.58.63,0,.17.73,0,1a8.87,8.87,0,0,0-1.71,3.3,3,3,0,0,0-.15,1.68,2.61,2.61,0,0,0,1.1-.49,10.08,10.08,0,0,0,2.51-2.45,3,3,0,0,0,.42-.67c.11-.2.24-.61.52-.58.52.05.05.81-.06,1a10.68,10.68,0,0,0-.94,3.82c0,.51,0,1.25.21,1.5a2.64,2.64,0,0,0,1.25-1,11.24,11.24,0,0,0,2.14-3.42c.08-.23.08-.65.43-.71.28.1.17.42.12.65a11.21,11.21,0,0,0-.27,4c0,.38.19,1.25.49,1.28s.76-.77.91-1a5.19,5.19,0,0,0,.61-1.31,7,7,0,0,0,.52-1.41,6.26,6.26,0,0,1,.37-1.59c1.15-.45.81.94.89,1.84a11.2,11.2,0,0,0,.21,1.74c.07.28.48,1.74.86,1.71.15,0,.29-.33.39-.58a10.08,10.08,0,0,0,.62-4.52.06.06,0,0,0,0-.06.74.74,0,0,1,.88-.09c.11.1.11.5.15.76a10.43,10.43,0,0,0,1.17,3.42,2,2,0,0,0,.85,1A1.8,1.8,0,0,0,30,44.56a11.38,11.38,0,0,0,.06-2.35c-.06-.83-.48-1.62-.27-2.3.64-.34.76.61.91,1a10.36,10.36,0,0,0,1.81,2.88c.4.29.55.83,1.16.91A2.68,2.68,0,0,0,33.8,43a11.22,11.22,0,0,0-.73-3.09c-.13-.28-.66-1.26-.1-1.28.29,0,.37.34.49.58A7,7,0,0,0,34.87,41a7.22,7.22,0,0,0,1.13,1,3.33,3.33,0,0,0,1.41.77c.22-.23.08-.54,0-.8a10,10,0,0,0-1.9-4.28c-.12-.16-.43-.42-.15-.64.55,0,.79.6,1.16.92a11.81,11.81,0,0,0,2.6,1.74,2.82,2.82,0,0,0,1.59.46,1.84,1.84,0,0,0-.22-1.07,9.53,9.53,0,0,0-2.47-3.42c-.24-.22-.8-.53-.37-.95a12.73,12.73,0,0,1,1.25.82,10.26,10.26,0,0,0,3,1.23,2.59,2.59,0,0,0,1.74.12,1.34,1.34,0,0,0-.34-.8,11.18,11.18,0,0,0-3.51-3.27c-.22-.13-.57-.26-.55-.61.37-.36.91.09,1.34.25a10.32,10.32,0,0,0,3.15.79c.58,0,1.33.17,1.71-.21-.09-.42-.48-.69-.79-1a10.36,10.36,0,0,0-3.3-2c-.34-.1-1-.11-.92-.55s1.08-.07,1.41,0a10.89,10.89,0,0,0,3.42.13,3.16,3.16,0,0,0,1.5-.4c-.06-.36-.45-.59-.74-.77a10.72,10.72,0,0,0-4-1.52c-.27,0-1,0-1-.4s1.31-.1,1.75-.12A11.67,11.67,0,0,0,46.06,26c.44-.16,1-.31,1.19-.77a2.14,2.14,0,0,0-.89-.49A12,12,0,0,0,43,23.87c-.46,0-1.86.16-1.9-.19s.46-.27.68-.3a10.27,10.27,0,0,0,3.66-1.29c.29-.15,1.15-.53,1.14-.85s-.72-.42-1.23-.49a12.55,12.55,0,0,0-4.7.27c-.19-.11-.34-.22-.31-.49s.28-.32.58-.42a10.32,10.32,0,0,0,3.33-1.84c.38-.31.88-.6.92-1.1-.37-.3-1.28-.19-1.77-.15a9.32,9.32,0,0,0-2.08.49c-.67.21-1.26.52-1.9.67a.5.5,0,0,1-.24-.36c.54-.64,1.42-.93,2-1.5a10.15,10.15,0,0,0,1.71-1.81,2,2,0,0,0,.55-1.1c-.54-.31-1.16,0-1.65.13a14.38,14.38,0,0,0-1.56.48c-.47.22-.91.47-1.35.71s-.77.71-1.28.7c-.27-.45.28-.72.52-.95a10.76,10.76,0,0,0,2.2-2.84,2.52,2.52,0,0,0,.37-1.34,2.84,2.84,0,0,0-1.56.46A12.34,12.34,0,0,0,37.25,12l-.55.46c-.28.26-1,1.43-1.37.64.32-.65.9-1.19,1.28-1.87a11.46,11.46,0,0,0,.71-1.62,3.27,3.27,0,0,0,.21-1.95,3.56,3.56,0,0,0-1.65,1,10,10,0,0,0-2.05,2.17c-.18.25-.4.9-.7.91-.74,0-.19-.91,0-1.25a10.25,10.25,0,0,0,.82-3.12,2.74,2.74,0,0,0-.18-1.68,2.15,2.15,0,0,0-1,.77,11.81,11.81,0,0,1-.82.91,11.29,11.29,0,0,0-1.29,2.33c-.17.44-.4,1.11-.88.58A15.25,15.25,0,0,0,30.23,6.6ZM13.11,9.23a7.86,7.86,0,0,1-.18-1,4.48,4.48,0,0,0-.19-1c-.16-.34-.81-.57-1.22-.67A3.92,3.92,0,0,0,9.78,6.3,3.26,3.26,0,0,0,9.6,7.89,3.33,3.33,0,0,0,9.9,9.2c.15.22.58.34.92.46a9,9,0,0,1,1.89.92c.32.19.54.49.92.45A6.73,6.73,0,0,0,13.11,9.23ZM39.39,6.76c-.3.1-.84.24-1,.49a2.85,2.85,0,0,0-.19.94,12.23,12.23,0,0,0-.61,2.69c.77-.3,1.71-.86,2.57-1.19.32-.12.72-.18.88-.37a3.33,3.33,0,0,0,.37-1.65,1.68,1.68,0,0,0-.18-1.13A3.72,3.72,0,0,0,39.39,6.76ZM10.51,12.53a19.16,19.16,0,0,1-1.16-2.6,5.63,5.63,0,0,0-2.69-.39.49.49,0,0,0-.36.21,5.24,5.24,0,0,0,.79,2.75c.65.19,1.31.26,2,.4a8.78,8.78,0,0,0,1.8.49C10.93,13.05,10.65,12.79,10.51,12.53Zm32.86-2.9a5.93,5.93,0,0,0-1.65.3c-.45.83-.81,1.75-1.26,2.54-.14.26-.41.53-.36.86a13.36,13.36,0,0,0,1.83-.43l2-.37a4.52,4.52,0,0,0,.82-2.66A2.69,2.69,0,0,0,43.37,9.63Zm-35.06,6c-.24-.41-.57-.76-.88-1.22-.21-.3-.56-1.1-.86-1.25a2.52,2.52,0,0,0-1-.07c-.72,0-1.84,0-2,.46s.34,1.14.52,1.47a4,4,0,0,0,.82,1.22,33.92,33.92,0,0,1,3.42.15c.24,0,.46.18.68.07C9,16.06,8.53,16,8.31,15.68ZM46.18,13.3a5.17,5.17,0,0,0-1.5-.09c-.45.06-.59.53-.79.88a8.89,8.89,0,0,1-.61.83c-.35.6-1,.94-1.26,1.59.25.17.57,0,.86,0a13.29,13.29,0,0,1,2-.07,3,3,0,0,0,1,0c.37-.12.72-.87.89-1.19a3.6,3.6,0,0,0,.55-1.53A2,2,0,0,0,46.18,13.3ZM7.09,19.38a17.31,17.31,0,0,1-1.8-1.59c-.25-.33-.41-.8-1-.76A5.57,5.57,0,0,0,3,17.39c-.34.12-1,.28-1,.55s.17.54.3.74a6.9,6.9,0,0,0,1.53,1.68c.94-.07,1.83-.34,2.87-.34.32,0,.72.09,1-.12C7.56,19.65,7.28,19.53,7.09,19.38Zm41.72-.25c.14-.19.42-.56.37-.85s-.84-.59-1.23-.7a5,5,0,0,0-1.59-.37c-.44,0-1.27,1.06-1.68,1.43a5.67,5.67,0,0,1-.82.65c-.32.21-.67.35-.74.67a3.92,3.92,0,0,0,1.56.15,13.34,13.34,0,0,1,1.38.25,4.49,4.49,0,0,0,1.34.21c.42-.11.54-.58.89-.76A4.4,4.4,0,0,1,48.81,19.13ZM5.44,22.43a12.13,12.13,0,0,0-1.62-1.1,3.75,3.75,0,0,0-1.68.55c-.36.2-1.06.58-1.07.86,0,.5.75.71,1,1.07.38.28.7.78,1.22.83a2.76,2.76,0,0,0,1-.31,14.65,14.65,0,0,1,2-.61c.36-.08.75-.08,1-.34C6.64,23,6,22.82,5.44,22.43Zm39.82,1.32a12.43,12.43,0,0,1,1.9.7c.35.17.59.41.91.4a2.57,2.57,0,0,0,1.23-.73c.25-.22.91-.65.88-1.07s-.74-.62-1.07-.92a10.74,10.74,0,0,0-1.31-.67h-.37c-.53.29-1,.68-1.59,1a8.56,8.56,0,0,1-.79.42c-.26.13-.65.19-.73.52C44.54,23.65,44.92,23.65,45.26,23.75ZM6.33,26.65a16,16,0,0,1-2-.73c-.42-.16-.9-.43-1.19-.28a8.88,8.88,0,0,0-1.59,1c-.22.19-.71.55-.67.83s.41.39.58.49.51.27.7.37A3.63,3.63,0,0,0,3.7,29a2.94,2.94,0,0,0,.88-.52,9.55,9.55,0,0,1,2.36-1.2c.15-.05.41-.06.46-.27C7.12,26.7,6.69,26.74,6.33,26.65Zm39.73,1.41a8.3,8.3,0,0,1,.79.55c.26.19.55.5.86.52a2.14,2.14,0,0,0,.85-.31c.27-.13.57-.26.8-.39a2,2,0,0,0,.82-.8,2.16,2.16,0,0,0-.82-1.07,3.51,3.51,0,0,0-1.1-.79c-.48-.14-.82.16-1.25.33a14.26,14.26,0,0,1-1.81.61c-.3.08-.69.08-.85.37A11.07,11.07,0,0,0,46.06,28.06ZM5.56,30.14a10.15,10.15,0,0,0-1.8-.31c-.5,0-.84.75-1.19,1-.18.4-.85.77-.74,1.28.07.31.81.53,1.13.64a4.37,4.37,0,0,0,1.5.31c.44-.2.66-.62,1-1A11.86,11.86,0,0,1,7,30.9c.16-.12.41-.25.43-.49A13.29,13.29,0,0,0,5.56,30.14Zm41.9-.28a5.34,5.34,0,0,0-1.31.28c-.82.18-1.86.15-2.63.36.08.35.44.5.67.68s.49.43.77.61c.48.43.9.93,1.4,1.34a4.84,4.84,0,0,0,1.84-.43c.39-.13.84-.23,1-.58A4.48,4.48,0,0,0,47.46,29.86Zm-4.83,4.68a8.44,8.44,0,0,1,1.26,1.74c.17.32.38.75.64.85A3.49,3.49,0,0,0,46.3,37c.38-.07,1.11-.13,1.22-.42s-.1-.56-.21-.8a5.69,5.69,0,0,0-1.25-2,15.91,15.91,0,0,1-3.79-.18c-.06,0-.07,0-.12,0s-.06.05-.1.06C42,34.05,42.4,34.28,42.63,34.54ZM4.8,33.77C4.13,34.16,4,35,3.67,35.7c-.12.25-.33.42-.28.73A4.64,4.64,0,0,0,5.56,37c1.1.08,1.2-.61,1.62-1.25a7.52,7.52,0,0,1,1-1.13c.13-.34.53-.41.58-.83C7.57,33.72,6.08,33.94,4.8,33.77Zm5.8,2.88a14,14,0,0,1-2.72.73,4.89,4.89,0,0,0-1,.15c-.31.13-.33.6-.43.89a5.26,5.26,0,0,0-.52,2,3.48,3.48,0,0,0,1.71.06,3.31,3.31,0,0,0,1.53-.37c.31-.55.49-1.24.79-1.8s.83-1,.89-1.68A.27.27,0,0,0,10.6,36.65ZM40,37a2.71,2.71,0,0,0,.39.86,16.3,16.3,0,0,1,1.13,2.57,4.67,4.67,0,0,0,3.24.15A3,3,0,0,0,44.56,39c-.11-.4-.24-1.11-.61-1.28a5.63,5.63,0,0,0-1-.16,29.36,29.36,0,0,1-2.87-.64A.13.13,0,0,0,40,37ZM13.17,39.12a12.34,12.34,0,0,1-1.56,1c-.29.13-.65.25-1,.4s-.87.22-1,.39a2.14,2.14,0,0,0-.19.74,4.9,4.9,0,0,0,0,2.41,5.82,5.82,0,0,0,2.91-.67,19,19,0,0,1,.79-3.24,2.52,2.52,0,0,0,.31-1A.24.24,0,0,0,13.17,39.12Zm24.18.46c-.07.19.11.54.18.86.14.61.32,1.18.4,1.8a3.71,3.71,0,0,0,.15.95c.21.37.92.49,1.35.61a3.79,3.79,0,0,0,1.65.24c.28-.29.25-.91.21-1.46a3.75,3.75,0,0,0-.24-1.5,2.41,2.41,0,0,0-.92-.37,7,7,0,0,1-1-.34,15.72,15.72,0,0,1-1.68-.88h-.06A.13.13,0,0,0,37.35,39.58Zm-3.06,5.59a2.67,2.67,0,0,0,1.19.95,3.42,3.42,0,0,0,1.62.49,4.13,4.13,0,0,0,.4-2.87c-.15-.31-.51-.31-.73-.46-.41-.31-.82-.57-1.29-.92s-.9-.8-1.25-1a.2.2,0,0,0-.09.09A22.4,22.4,0,0,1,34.29,45.17Zm-20.41-2c-.29.16-.72.34-.83.55a3.3,3.3,0,0,0,0,1.71,2.19,2.19,0,0,0,.52,1.4,3.77,3.77,0,0,0,1.71-.52,2.87,2.87,0,0,0,1-.76,17.53,17.53,0,0,1,0-3.24c.05-.31.27-.67,0-.89,0,0,0,0,0,0A29.69,29.69,0,0,1,13.88,43.16Zm9.81-.83a24.74,24.74,0,0,1-1.07,2.38A10.57,10.57,0,0,1,22,45.78c-.21.32-.63.71-.64,1.07a2.46,2.46,0,0,0,.37,1c.13.25.35.51.52.77s.29.63.64.64c.61-.13.94-.7,1.28-1.1a3.45,3.45,0,0,0,.92-1.5A15.92,15.92,0,0,0,24.48,45a10.6,10.6,0,0,1-.49-1.8c0-.3,0-.73-.18-.95,0,0,0,0,0,0A.13.13,0,0,0,23.69,42.33Zm7.48,5.29c.27.21,1,1,1.47.88s.58-.83.7-1.19a5.3,5.3,0,0,0,.31-1.62c-.51-.55-1-1-1.53-1.62a17.41,17.41,0,0,1-1.37-1.8h-.06c0-.06-.09,0-.1,0a12.67,12.67,0,0,0-.09,1.8c-.07.83-.34,1.56-.43,2.26A3.56,3.56,0,0,0,31.17,47.62ZM26.53,45c-.09.27-.21.57-.34.88a3.15,3.15,0,0,0-.3.92c0,.41.61,1.08.82,1.32.37.42.63.84,1.16,1a2,2,0,0,0,.92-1,2.58,2.58,0,0,0,.52-1.44,3.28,3.28,0,0,0-.58-.89,9.27,9.27,0,0,1-1-1.89c-.16-.37-.27-.84-.55-1a.2.2,0,0,0-.09.09C26.86,43.62,26.77,44.22,26.53,45ZM19.71,43a6.53,6.53,0,0,0-.64.77c-.21.25-.41.5-.64.73A18.44,18.44,0,0,0,17,45.91a5.84,5.84,0,0,0,.34,1.46c.13.39.32,1.06.7,1.1.59.07.91-.62,1.41-.76.33-.39.84-.61,1.07-1.1-.14-.82-.36-1.77-.46-2.78,0-.32,0-.9-.27-.86Z"/><path class="cls-1" d="M25.37,12.17a1.4,1.4,0,0,1-.86.79c-1.9.19-1.51-2.12-.24-2.17C25,10.76,25.38,11.34,25.37,12.17Z"/><path class="cls-1" d="M27.54,10.94a1.14,1.14,0,0,1-.62,2.2c-.38-.18-.75-.35-.85-.76A1.24,1.24,0,0,1,27.54,10.94Z"/><path class="cls-1" d="M21.12,11.4a1.35,1.35,0,0,1,.67,0,1.15,1.15,0,0,1,0,2,1.29,1.29,0,0,1-1.62-.61A1.1,1.1,0,0,1,21.12,11.4Z"/><path class="cls-1" d="M30,11.65c1.69-.43,1.78,2.4.06,2.2a1.23,1.23,0,0,1-1-1.19C29.15,12.07,29.62,11.82,30,11.65Z"/><path class="cls-1" d="M18.37,12.59c1.8-.38,1.65,2.68-.19,2.14a1.48,1.48,0,0,1-.76-.7A1.15,1.15,0,0,1,18.37,12.59Z"/><path class="cls-1" d="M32.64,15.22A1.15,1.15,0,0,1,32,13.57a1.16,1.16,0,0,1,1.34-.46,1.26,1.26,0,0,1,.4,1.84C33.49,15.17,33.16,15.2,32.64,15.22Z"/><path class="cls-1" d="M25.61,14.18a0,0,0,0,1,0,0c1.07-.14,1.5.51,1.38,1.47a1.18,1.18,0,0,1-2.2-.09A1.06,1.06,0,0,1,25.61,14.18Z"/><path class="cls-1" d="M22.92,14.37A1.2,1.2,0,0,1,24.27,16a1.29,1.29,0,0,1-1.47.61,1.19,1.19,0,0,1-.61-1.78A1.51,1.51,0,0,1,22.92,14.37Z"/><path class="cls-1" d="M15.07,15A1.23,1.23,0,0,1,17.15,15c.59,1.15-1.13,2.14-1.9,1.22A1.52,1.52,0,0,1,15.07,15Z"/><path class="cls-1" d="M28.73,14.64A1.19,1.19,0,0,1,30,16.23,1.23,1.23,0,0,1,27.75,16,1.15,1.15,0,0,1,28.73,14.64Z"/><path class="cls-1" d="M34.23,15.16a1.38,1.38,0,0,1,1.71.18,1.12,1.12,0,0,1-1.19,1.75A1.24,1.24,0,0,1,34.23,15.16Z"/><path class="cls-1" d="M20.11,15.41a1.22,1.22,0,0,1,1.47.85,1.21,1.21,0,0,1-2,1C19.05,16.75,19.29,15.47,20.11,15.41Z"/><path class="cls-1" d="M31.3,16.05A1.13,1.13,0,0,1,32,18.19a1.14,1.14,0,1,1-.67-2.14Z"/><path class="cls-1" d="M13.91,16.48a1,1,0,0,1,1.31,1,1.14,1.14,0,0,1-2.23.31C12.93,17,13.27,16.59,13.91,16.48Z"/><path class="cls-1" d="M37.29,19.35c-1.65.42-1.88-2.13-.46-2.23A1.17,1.17,0,0,1,37.29,19.35Z"/><path class="cls-1" d="M17.67,17.18c1.21-.31,1.71,1.13,1.1,1.92a1.3,1.3,0,0,1-1.59.13A1.23,1.23,0,0,1,17.67,17.18Z"/><path class="cls-1" d="M24.73,17.39c1.29-.11,1.86,1.77.7,2.2a1.61,1.61,0,0,1-1.35-.15A1.21,1.21,0,0,1,24.73,17.39Z"/><path class="cls-1" d="M26.86,19.65a1.25,1.25,0,0,1,.65-2c1.3-.12,1.93,1.71.79,2.2A1.66,1.66,0,0,1,26.86,19.65Z"/><path class="cls-1" d="M34.69,19.41a1.37,1.37,0,0,1-.61.73,1.17,1.17,0,0,1-1.53-1.59,1.3,1.3,0,0,1,1.77-.33C34.64,18.48,34.67,18.88,34.69,19.41Z"/><path class="cls-1" d="M21.61,18.28a1.38,1.38,0,0,1,1.28.46c.76,1.16-.7,2.31-1.8,1.52C20.49,19.71,20.78,18.36,21.61,18.28Z"/><path class="cls-1" d="M30.35,21.27a1.14,1.14,0,0,1-1-1.95,1.26,1.26,0,0,1,1.62.12A1.2,1.2,0,0,1,30.35,21.27Z"/><path class="cls-1" d="M12.56,19.2a1.1,1.1,0,0,1,1.32,1.06,1.14,1.14,0,0,1-.71,1,1.11,1.11,0,0,1-1.43-.94A1,1,0,0,1,12.56,19.2Z"/><path class="cls-1" d="M16,19.62c.88-.14,1.28.45,1.26,1.32-.17.33-.32.64-.64.76a1.13,1.13,0,0,1-1.2-1.86A1.3,1.3,0,0,1,16,19.62Z"/><path class="cls-1" d="M37.81,19.93a1.21,1.21,0,0,1,1.1.34,1.16,1.16,0,0,1-.4,1.71,1.11,1.11,0,0,1-1.44-.74,3.63,3.63,0,0,1,0-.67A1.13,1.13,0,0,1,37.81,19.93Z"/><path class="cls-1" d="M20,22.4c-.85.16-1.45-.28-1.5-.94a1.16,1.16,0,0,1,2-.83A1.22,1.22,0,0,1,20,22.4Z"/><path class="cls-1" d="M34.69,20.48a1.07,1.07,0,0,1,1.25,1.19,1.13,1.13,0,0,1-2.17.12A1,1,0,0,1,34.69,20.48Z"/><path class="cls-1" d="M24.57,22.19a2.36,2.36,0,0,1,.06-.7c.45-1.16,2.48-.44,2,.85a1.26,1.26,0,0,1-1,.65A1.18,1.18,0,0,1,24.57,22.19Z"/><path class="cls-1" d="M31.45,21.4a1.2,1.2,0,0,1,1,.3A1.27,1.27,0,0,1,32,23.54a1.15,1.15,0,0,1-1.1-2A1.12,1.12,0,0,1,31.45,21.4Z"/><path class="cls-1" d="M12.87,23.6a1.11,1.11,0,0,1-2-.58,1.15,1.15,0,0,1,1.44-1A1.22,1.22,0,0,1,12.87,23.6Z"/><path class="cls-1" d="M22.77,22.1a1,1,0,0,1,.64,1.83,1,1,0,0,1-1.59-.76A1,1,0,0,1,22.77,22.1Z"/><path class="cls-1" d="M27.84,22.22a1.05,1.05,0,0,1,1.32,1.28,1.12,1.12,0,0,1-2,.19A1,1,0,0,1,27.84,22.22Z"/><path class="cls-1" d="M15.65,24.48c-1.92.6-2-2.58-.12-2.11A1.14,1.14,0,0,1,15.65,24.48Z"/><path class="cls-1" d="M38.51,22.65c1.67-.33,1.77,2.39.06,2.14a1.25,1.25,0,0,1-.92-.8A1.15,1.15,0,0,1,38.51,22.65Z"/><path class="cls-1" d="M35.39,23a1.1,1.1,0,0,1,1.35,1.06,1.13,1.13,0,0,1-1.5,1C34.31,24.78,34.25,23.12,35.39,23Z"/><path class="cls-1" d="M19.07,23.17a1.11,1.11,0,0,1-.43,1.95,1.06,1.06,0,0,1-1.16-1.4A1.09,1.09,0,0,1,19.07,23.17Z"/><path class="cls-1" d="M25.15,24.24s0,0,0,0c.85,0,1.24.39,1.23,1.22-.17,1-1.9,1-2.08,0A1,1,0,0,1,25.15,24.24Z"/><path class="cls-1" d="M32.27,24.39a1,1,0,0,1,1.16.61c.48,1.64-2.28,1.9-2.07.28A1.08,1.08,0,0,1,32.27,24.39Z"/><path class="cls-1" d="M21.27,26.5c-.16-.3-.34-.5-.24-.89.37-1.41,2.59-.75,2,.65A1.16,1.16,0,0,1,21.27,26.5Z"/><path class="cls-1" d="M11.58,24.88A1,1,0,0,1,12.81,26a1.09,1.09,0,1,1-1.23-1.13Z"/><path class="cls-1" d="M29.19,25c.22.22.47.4.52.74.16,1.09-1.37,1.48-1.93.7S28.15,24.57,29.19,25Z"/><path class="cls-1" d="M15.43,27.32a1.09,1.09,0,0,1-1-1.89,1.93,1.93,0,0,1,.58-.24A1.09,1.09,0,0,1,15.43,27.32Z"/><path class="cls-1" d="M39.82,27a1.17,1.17,0,0,1-1.5.73,1.09,1.09,0,0,1-.64-1.13C37.81,25.36,40.1,25.26,39.82,27Z"/><path class="cls-1" d="M18.49,25.8a1.49,1.49,0,0,1,.83.21,1.07,1.07,0,1,1-1.78.76A1,1,0,0,1,18.49,25.8Z"/><path class="cls-1" d="M35.33,25.83c1.64-.32,1.67,2.5-.21,2.05a1.26,1.26,0,0,1-.71-.77C34.35,26.31,34.69,25.93,35.33,25.83Z"/><path class="cls-1" d="M31.48,27c1.71-.39,1.53,2.53-.24,1.92A1,1,0,0,1,31.48,27Z"/><path class="cls-1" d="M26.8,27c1.51-.18,1.49,2.07.13,2.08a1.55,1.55,0,0,1-.74-.25A1.08,1.08,0,0,1,26.8,27Z"/><path class="cls-1" d="M23.62,27.11a1.3,1.3,0,0,1,1.32.52,1.12,1.12,0,0,1-.61,1.5,1.21,1.21,0,0,1-1.56-.89A1,1,0,0,1,23.62,27.11Z"/><path class="cls-1" d="M12.26,27.72a1.06,1.06,0,0,1,.42,2,1.07,1.07,0,0,1-1.49-1.13A1,1,0,0,1,12.26,27.72Z"/><path class="cls-1" d="M15.5,28s0,0,0,0h.55a1.1,1.1,0,1,1-1.35.88A1,1,0,0,1,15.5,28Z"/><path class="cls-1" d="M19.65,28.24a0,0,0,0,1,0,0h.43a1.13,1.13,0,0,1,.64,1.86c-.77.55-2.15.17-1.86-1.09A1,1,0,0,1,19.65,28.24Z"/><path class="cls-1" d="M38.94,28.67a1.15,1.15,0,0,1-1.07,1.89c-.42-.06-.74-.72-.74-1.13A1.09,1.09,0,0,1,38.94,28.67Z"/><path class="cls-1" d="M34.29,28.49a1.09,1.09,0,1,1,.25,2.14,1.27,1.27,0,0,1-1-.71A1.08,1.08,0,0,1,34.29,28.49Z"/><path class="cls-1" d="M29.83,29.1a1,1,0,0,1,1.22.52,1.1,1.1,0,0,1-1.86,1.1A1,1,0,0,1,29.83,29.1Z"/><path class="cls-1" d="M22,30.14a1,1,0,0,1,1,1.34,1.3,1.3,0,0,1-.85.61,1,1,0,0,1-1.07-1.43A1,1,0,0,1,22,30.14Z"/><path class="cls-1" d="M13.26,30.35A1.14,1.14,0,0,1,14.46,32a1.18,1.18,0,0,1-2-.12C12.28,31.08,12.56,30.42,13.26,30.35Z"/><path class="cls-1" d="M17.33,30.41a1.12,1.12,0,0,1,.61.12,1.09,1.09,0,0,1,0,1.81,1.14,1.14,0,0,1-1.74-.86A1,1,0,0,1,17.33,30.41Z"/><path class="cls-1" d="M27.32,30.56a1,1,0,0,1,.92,1.75,1.07,1.07,0,0,1-1.77-1C26.66,31,26.84,30.62,27.32,30.56Z"/><path class="cls-1" d="M24.66,30.84a1.05,1.05,0,0,1,1,1.5,1.13,1.13,0,0,1-1,.55A1,1,0,0,1,24.66,30.84Z"/><path class="cls-1" d="M32.67,30.9a1.09,1.09,0,1,1,.15,2.17A1.09,1.09,0,0,1,32.67,30.9Z"/><path class="cls-1" d="M38,32.28c-.19.35-.34.75-.7.85a1.08,1.08,0,0,1-1.07-1.8A1,1,0,0,1,38,32.28Z"/><path class="cls-1" d="M19.22,32.34A1.08,1.08,0,0,1,20.39,34a1.18,1.18,0,0,1-2.05-.43A1,1,0,0,1,19.22,32.34Z"/><path class="cls-1" d="M30.41,32.58c1.8-.36,1.72,2.28.15,2.14-.62,0-1-.51-1-1.34C29.77,33,29.94,32.65,30.41,32.58Z"/><path class="cls-1" d="M14.91,33s0,0,0,0a1.12,1.12,0,1,1,0,2.17,1.19,1.19,0,0,1-.55-1.87A1.35,1.35,0,0,1,14.91,33Z"/><path class="cls-1" d="M35,33.28a1,1,0,0,1,1.13.92,1.33,1.33,0,0,1-.36.95,1.14,1.14,0,0,1-1.74-.4A1.07,1.07,0,0,1,35,33.28Z"/><path class="cls-1" d="M21.82,33.62A1.1,1.1,0,0,1,23,35.27a1.36,1.36,0,0,1-1.1.43C20.86,35.58,20.55,33.82,21.82,33.62Z"/><path class="cls-1" d="M27.78,33.71a1.16,1.16,0,0,1,1.16.58c.67,1.49-1.72,2.21-2.11.83A1.08,1.08,0,0,1,27.78,33.71Z"/><path class="cls-1" d="M24.11,34.29c.91-.75,2.45.56,1.62,1.56a1.4,1.4,0,0,1-.79.4A1.11,1.11,0,0,1,24.11,34.29Z"/><path class="cls-1" d="M18.61,36.28a1.15,1.15,0,0,1-2.17-.76A1.16,1.16,0,0,1,18.61,36.28Z"/><path class="cls-1" d="M32.49,35.18c1.79-.4,1.48,2.67-.19,2C31.52,36.89,31.38,35.3,32.49,35.18Z"/><path class="cls-1" d="M20.26,36.37a1.1,1.1,0,0,1,1.23,1.44,1.19,1.19,0,0,1-2.24-.31A1,1,0,0,1,20.26,36.37Z"/><path class="cls-1" d="M30.41,38.66c-1,.23-1.83-.59-1.44-1.52a1.22,1.22,0,0,1,1.41-.55A1.12,1.12,0,0,1,30.41,38.66Z"/><path class="cls-1" d="M23.23,37.17a1.08,1.08,0,0,1,1.28,1.16c-.07.87-1.37,1.15-2,.55A1.08,1.08,0,0,1,23.23,37.17Z"/><path class="cls-1" d="M26.62,37.23a1.29,1.29,0,0,1,1.25.88,1.13,1.13,0,0,1-.55,1.2A1.15,1.15,0,0,1,25.64,38,1.32,1.32,0,0,1,26.62,37.23Z"/></g><path d="M60.47,21.89l-.75-3.08q.72-.18,1.62-.33c.52-.08,1.14-.15,1.85-.22s1.5-.1,2.38-.1a16.85,16.85,0,0,1,1.81.11,10.07,10.07,0,0,1,1.86.41,5.23,5.23,0,0,1,1.55.77,2.41,2.41,0,0,1,.88,1.21c.21.72.38,1.38.5,2s.25,1.21.36,1.81.23,1.22.34,1.87.27,1.38.46,2.22l.75,1.73,1.85-.15.46,1.95-1.68,1.25H70L69,31.69a3.52,3.52,0,0,1-1,.76,7.61,7.61,0,0,1-1.19.51,8.2,8.2,0,0,1-1.11.28,4.89,4.89,0,0,1-.77.09H58.75a8.93,8.93,0,0,1-.9-1.25,3.66,3.66,0,0,1-.42-1.86,7,7,0,0,1,.17-1.45,8.49,8.49,0,0,1,.5-1.47A7.11,7.11,0,0,1,58.9,26,4.38,4.38,0,0,1,60,25l7.51-1-.19-1.58-1.13-1.71Zm1.62,7.39a2.43,2.43,0,0,0,.82,2c.56,0,1.12-.11,1.69-.19s1.09-.2,1.59-.32,1-.24,1.35-.37.71-.25.94-.35L67.85,26l-4.91,1.14A5,5,0,0,0,62.09,29.28Z"/><path d="M92.67,21.05c0,1,0,2.09,0,3.17s0,2.11,0,3.09v2.44l-3.85,3.67H81l-3.54-2.81V20.93l-2.16-1.16.78-1.38H82l0,10.85,1.09,2.18,3.57-.33L88,28.88l0-8.16-.3-.2-.41-.32L87,19.9a1.85,1.85,0,0,0-.24-.16V18.39h6Z"/><path d="M99.88,27.52c0,1.32,0,2.57,0,3.75l1.38.51c0,.26,0,.51,0,.76s0,.51,0,.79H95.36c0-.3,0-.71,0-1.24s0-1.12,0-1.78,0-1.35,0-2.07V20.69l-1.6-1,.75-1.35h5l.19,2.75a20,20,0,0,1,2-1.55,11.67,11.67,0,0,1,1.83-1.06,4.33,4.33,0,0,1,1.83-.46,5.17,5.17,0,0,1,1.47.2,8,8,0,0,1,1.16.47,5.48,5.48,0,0,1,.83.51l.45.34-1.19,3.2-4.07-.9a4.19,4.19,0,0,0-1,.31c-.41.17-.82.36-1.22.56s-.78.39-1.12.59l-.75.45C99.86,25,99.87,26.2,99.88,27.52Z"/><path d="M114.37,30.24a4.46,4.46,0,0,0,3.39,1.39,4.21,4.21,0,0,0,1.82-1.2c.5-.55,1-1.2,1.62-1.94l3.51,1.23a2.44,2.44,0,0,1-.44.82,7.86,7.86,0,0,1-1,1.19,7.57,7.57,0,0,1-1.44,1.09,3.23,3.23,0,0,1-1.54.51h-7.67a2.48,2.48,0,0,1-1.71-.94,9.6,9.6,0,0,1-1.58-2.33,11.87,11.87,0,0,1-1-3,6.2,6.2,0,0,1,0-2.85c.11-.34.28-.8.53-1.37a9.58,9.58,0,0,1,1-1.75,8.07,8.07,0,0,1,1.53-1.63,4.92,4.92,0,0,1,2.16-1,18.3,18.3,0,0,1,2-.23,24,24,0,0,1,2.4-.06,17.33,17.33,0,0,1,2.25.19,4,4,0,0,1,1.58.52,5.61,5.61,0,0,1,1,.94,7.92,7.92,0,0,1,.93,1.42,8.44,8.44,0,0,1,.69,1.73,7.52,7.52,0,0,1,.3,1.86l-2.1,1.64-9.45.51A5.71,5.71,0,0,0,114.37,30.24Zm5.38-6.87c-.14-.47-.3-1-.5-1.47a11.43,11.43,0,0,0-.63-1.35c-.22-.4-.42-.61-.61-.63a2.91,2.91,0,0,0-.79.06c-.33.06-.66.13-1,.22s-.67.19-1,.3a5.37,5.37,0,0,0-.75.31,2.34,2.34,0,0,0-.44.66,8.32,8.32,0,0,0-.41,1,11,11,0,0,0-.3,1.16,6.28,6.28,0,0,0-.1,1.08l6.75-.42A6.81,6.81,0,0,0,119.75,23.37Z"/><path d="M131.28,30.82l2.22.63v1.88h-6.57L127,14.9l-2.41-1.05.41-1.43h6.29Z"/></g></g></svg>