<svg xmlns="http://www.w3.org/2000/svg" viewBox="0 0 135.34 50"><defs><style>.cls-1{fill-rule:evenodd;}</style></defs><g id="Calque_2" data-name="Calque 2"><g id="Calque_1-2" data-name="Calque 1"><path d="M62.3,20.79l-.75-3.08c.48-.12,1-.23,1.63-.33s1.13-.15,1.84-.22,1.51-.11,2.38-.11a14.87,14.87,0,0,1,1.82.12,11.38,11.38,0,0,1,1.86.4,5.25,5.25,0,0,1,1.55.78,2.3,2.3,0,0,1,.87,1.21c.21.72.38,1.38.51,2s.24,1.21.36,1.8l.34,1.87c.11.65.27,1.39.45,2.23l.75,1.73L77.76,29,78.23,31l-1.69,1.26H71.78l-.9-1.65a3.75,3.75,0,0,1-1,.77,8.5,8.5,0,0,1-1.18.5,8.07,8.07,0,0,1-1.12.29,4.92,4.92,0,0,1-.76.09H60.58A8.47,8.47,0,0,1,59.69,31a3.62,3.62,0,0,1-.42-1.85,6.28,6.28,0,0,1,.17-1.45,7.17,7.17,0,0,1,.5-1.48,6.62,6.62,0,0,1,.8-1.33,4.17,4.17,0,0,1,1.06-1l7.51-1-.19-1.59L68,19.56Zm1.63,7.39a2.45,2.45,0,0,0,.81,2c.57,0,1.13-.11,1.69-.2s1.1-.19,1.6-.31,1-.25,1.34-.38.71-.24.94-.34l-.62-4.06L64.77,26A4.84,4.84,0,0,0,63.93,28.18Z"/><path d="M94.5,20c0,1,0,2.09,0,3.17s0,2.1,0,3.09v2.43l-3.85,3.68H82.86l-3.54-2.81V19.83l-2.15-1.17L78,17.29h5.88l0,10.84L85,30.31,88.52,30l1.32-2.21,0-8.16-.3-.21-.4-.31-.38-.3-.23-.17V17.29H94.5Z"/><path d="M101.71,26.42c0,1.32,0,2.57,0,3.75l1.38.5c0,.26,0,.52,0,.77s0,.51,0,.79H97.19c0-.3,0-.72,0-1.24s0-1.12,0-1.78,0-1.35,0-2.08V19.59l-1.59-1,.75-1.34h4.94l.19,2.75a19.34,19.34,0,0,1,2-1.55,12.71,12.71,0,0,1,1.83-1.07,4.48,4.48,0,0,1,1.83-.46,4.85,4.85,0,0,1,1.48.21,7.86,7.86,0,0,1,1.15.46,5,5,0,0,1,.83.51l.46.35-1.19,3.19-4.07-.89a4.37,4.37,0,0,0-1,.31c-.41.17-.81.35-1.22.55s-.78.4-1.11.6l-.75.45C101.7,23.85,101.7,25.09,101.71,26.42Z"/><path d="M116.2,29.13a4.47,4.47,0,0,0,3.4,1.39,4.16,4.16,0,0,0,1.81-1.19c.5-.56,1-1.21,1.63-1.94l3.5,1.22a2.27,2.27,0,0,1-.43.82,7.9,7.9,0,0,1-1,1.2,8.25,8.25,0,0,1-1.44,1.09,3.26,3.26,0,0,1-1.55.51H114.4a2.48,2.48,0,0,1-1.7-.94A9.52,9.52,0,0,1,111.12,29a11.61,11.61,0,0,1-1-3,6.19,6.19,0,0,1,0-2.85,13.24,13.24,0,0,1,.53-1.38,9.51,9.51,0,0,1,1-1.75,8.62,8.62,0,0,1,1.53-1.62,5,5,0,0,1,2.16-1c.57-.1,1.24-.18,2-.24a23.76,23.76,0,0,1,2.39-.06,17.11,17.11,0,0,1,2.25.2,3.94,3.94,0,0,1,1.58.52,5,5,0,0,1,1,.94,8,8,0,0,1,.94,1.42,9.46,9.46,0,0,1,.69,1.73,8,8,0,0,1,.29,1.85l-2.09,1.65-9.45.5A5.58,5.58,0,0,0,116.2,29.13Zm5.38-6.87c-.13-.46-.3-1-.5-1.46a10.21,10.21,0,0,0-.62-1.36c-.22-.4-.42-.61-.61-.63a3,3,0,0,0-.8.06c-.32.06-.66.14-1,.23s-.67.19-1,.3a5.94,5.94,0,0,0-.75.31,2.58,2.58,0,0,0-.44.66,8.18,8.18,0,0,0-.4,1,7.72,7.72,0,0,0-.3,1.17,6.26,6.26,0,0,0-.11,1.07l6.76-.41A7.42,7.42,0,0,0,121.58,22.26Z"/><path d="M133.12,29.72l2.22.62v1.89h-6.57l.06-18.43-2.41-1.05.41-1.43h6.29Z"/><path class="cls-1" d="M25.26.85a2.79,2.79,0,0,0-.13,1.32,59.77,59.77,0,0,0,0,6.83c.09.86.23,1.69.37,2.49a50.09,50.09,0,0,0,1.93,6.65c.12.36.24.72.37,1.08s.2.72.31,1.1a13.75,13.75,0,0,0,.7,1.59c.73,1.58,1.41,3.15,2.18,4.7A42.33,42.33,0,0,1,33.72,33a26.45,26.45,0,0,1,.73,12.12,16.71,16.71,0,0,1-.52,1.77,3.69,3.69,0,0,1-.76,1.63A4.79,4.79,0,0,1,32,49a26,26,0,0,1-9.9.89,25.53,25.53,0,0,1-8.56-2.55c-.36-.19-.91-.42-.92-.64s.81-.72,1-.86c.38-.31.64-.57,1-.86,4.39-4.59,7.26-10.9,7.72-19.47a57.33,57.33,0,0,0-.06-6.56,44.89,44.89,0,0,1,0-6.56,38.26,38.26,0,0,1,1.69-8.53,12.07,12.07,0,0,0,.7-2.6,2.94,2.94,0,0,0-.73,1c-1.53,2.6-3.1,5.28-4.63,7.94-.88,1.51-1.79,3-2.61,4.6-1.66,3.14-3.45,6.06-5.27,9.11C8.88,28,6.53,32.17,4.07,36.39c-.18.31-.5,1-.74,1s-.61-1.06-.73-1.29A23.94,23.94,0,0,1,.91,31.79,21.9,21.9,0,0,1,0,24.67a28.23,28.23,0,0,1,1.17-6.9,25.39,25.39,0,0,1,2.36-5.7,25.12,25.12,0,0,1,8-8.12A26.52,26.52,0,0,1,17,1.31,22.55,22.55,0,0,1,21.91.18c.62-.08,1.33-.13,2-.16a23.78,23.78,0,0,1,7.39.92,24.8,24.8,0,0,1,8.37,4.11,23.41,23.41,0,0,1,2.17,2,23.82,23.82,0,0,1,3.84,4.48,23.6,23.6,0,0,1,4,12.6,24.65,24.65,0,0,1-2.54,12c-.13.25-.53,1.25-.8,1.26s-.49-.54-.67-.89c-2-3.73-4.25-7.24-6.29-10.92-2.23-4-4.5-8-6.87-11.89-1.17-2-2.27-4-3.43-5.95-.2-.34-.42-.65-.58-1S28.19,6,28,5.63s-.47-.8-.68-1.22c-.51-1-1.08-2.05-1.65-3.07C25.59,1.16,25.5.89,25.26.85Z"/></g></g></svg>