<svg xmlns="http://www.w3.org/2000/svg" viewBox="0 0 1074.56 500"><defs><style>.cls-1{fill-rule:evenodd;}</style></defs><g id="Calque_2" data-name="Calque 2"><g id="Calque_1-2" data-name="Calque 1"><path class="cls-1" d="M185.49,172.91l34.26,27.37-6.35-41.65L199.76,71.69l-1.42-5.88c0-.15-.08-.3-.11-.46l-.25-1h0a50.29,50.29,0,0,0-5.19-12.68c-13.84-23.94-44.25-32.26-67.91-18.58s-31.62,44.18-17.78,68.13a50.92,50.92,0,0,0,9.21,11.6h0l.06,0c.84.79,1.71,1.54,2.6,2.26Z"/><path class="cls-1" d="M155.71,213.88l43.3,6.67-26.36-32.82-55.37-68.31-4.18-4.37c-.1-.12-.21-.23-.32-.35l-.72-.74h0a50.92,50.92,0,0,0-10.84-8.37c-24-13.82-54.38-5.95-68,17.58S28.11,177,52.07,190.81a50.86,50.86,0,0,0,13.77,5.46h.07c1.12.26,2.24.48,3.37.66Z"/><path class="cls-1" d="M151.38,266.09l40.84-16.15L153,234.41,70.9,202.32l-5.8-1.73-.46-.14-1-.29h0a50.08,50.08,0,1,0,1.09,96.11h0l.06,0c1.11-.34,2.19-.72,3.26-1.14Z"/><path class="cls-1" d="M171.74,311.29,198.4,276.5l-41.49,7.24-86.6,15.51-5.84,1.55c-.16,0-.31.08-.46.12l-1,.26h0a50.87,50.87,0,0,0-12.56,5.46C26.8,321,19.09,351.52,33.23,374.84S78,405.45,101.66,391.11a50.88,50.88,0,0,0,11.42-9.44h0l0-.05c.77-.86,1.5-1.74,2.2-2.65Z"/><path class="cls-1" d="M212.75,343.29l5.69-43.48-32.37,27L118.7,383.41l-4.3,4.25-.33.34-.74.72h0a50.64,50.64,0,0,0-8.16,11c-13.33,24.24-4.71,54.58,19.26,67.76s54.21,4.23,67.54-20a50.47,50.47,0,0,0,5.17-13.88h0v-.08c.24-1.12.42-2.25.58-3.39Z"/><path class="cls-1" d="M264.24,348.66l-15.51-40.88L233.62,347,202.4,429l-1.68,5.79c-.05.15-.09.31-.13.46l-.29,1h0a51.73,51.73,0,0,0-1.84,13.56c-.07,27.66,21.55,50.14,48.29,50.2s48.47-22.31,48.53-50a51.33,51.33,0,0,0-2.07-14.66h0l0-.07c-.33-1.1-.69-2.18-1.09-3.25Z"/><path class="cls-1" d="M310.72,327.72l-34.07-27.58,6.12,41.67,13.17,87,1.39,5.89c0,.15.08.3.11.46l.24,1h0a50.83,50.83,0,0,0,5.11,12.7c13.71,24,44,32.55,67.73,19s31.82-43.95,18.11-68a50.42,50.42,0,0,0-9.13-11.66h0l-.06-.05c-.83-.79-1.7-1.55-2.58-2.27Z"/><path class="cls-1" d="M338.78,285.11l-43.36-6.46,26.44,32.79,55.53,68.24,4.19,4.37c.1.11.22.22.32.34l.72.74h0a50.9,50.9,0,0,0,10.85,8.35c24,13.73,54.46,5.67,68-18s5.08-54-18.93-67.76a50.71,50.71,0,0,0-13.79-5.41h-.06c-1.13-.26-2.26-.47-3.38-.65Z"/><path class="cls-1" d="M344.56,234.16l-40.73,16.55,39.33,15.4,82.31,31.81,5.81,1.7.46.14,1,.29v0a49.46,49.46,0,0,0,13.58,1.8A50.49,50.49,0,1,0,431,203.16h0l-.06,0c-1.1.35-2.18.74-3.25,1.16Z"/><path class="cls-1" d="M324.21,187.12l-27.09,34.49,41.6-6.67,86.85-14.31,5.86-1.46.46-.12,1-.25h0a50.52,50.52,0,0,0,12.63-5.29c23.84-14,31.9-44.52,18-68.1s-44.46-31.31-68.3-17.27a51.09,51.09,0,0,0-11.53,9.29h0l0,.06c-.78.84-1.52,1.72-2.23,2.61Z"/><path class="cls-1" d="M283.14,156.48,277,199.9l32.68-26.61,68-55.88,4.34-4.2.34-.33.74-.72h0a50.9,50.9,0,0,0,8.29-10.9c13.6-24.09,5.31-54.52-18.51-68s-54.16-4.84-67.77,19.25a50.87,50.87,0,0,0-5.32,13.82h0l0,.07c-.25,1.13-.45,2.25-.62,3.39Z"/><path class="cls-1" d="M232,151.37l15.8,40.85L263,153l31.54-82.07,1.7-5.79c.05-.15.09-.31.14-.46l.29-1h0a50.52,50.52,0,0,0,1.85-13.57C298.55,22.46,276.57,0,249.44,0S200.3,22.38,200.28,50a51.35,51.35,0,0,0,2.13,14.66h0l0,.07c.33,1.1.71,2.18,1.11,3.25Z"/><path d="M673.73,233.43v58.43q.56,6.74,2.24,9.41c1.13,1.78,3.46,3,7,3.79l-1.12,28.37q-14.32,0-22.89-2a51.65,51.65,0,0,1-17.28-7.87,93.52,93.52,0,0,1-41.29,9.83q-43.54,0-43.54-46.07,0-22.47,12.08-31.88T606,244.39l30.05-2.25v-8.71q0-8.7-3.93-11.94t-12.64-3.23l-52.81,2.25-1.12-26.12q30-8.14,57.16-8.15t39,11.24Q673.72,208.72,673.73,233.43Zm-63.21,37.08q-15.74,1.41-15.73,16.85t13.77,15.45a90.87,90.87,0,0,0,23.31-3.37l4.21-1.12V268.26Z"/><path d="M773.16,189.61H810.8V330.06H773.44v-7.87q-20.22,11.25-35.11,11.24-29.22,0-39.33-16.15t-10.11-54.07v-73.6h37.64v74.16q0,20.79,3.37,28.37t16.29,7.58a68.34,68.34,0,0,0,23.32-3.93l3.65-1.12Z"/><path d="M826.25,330.06V189.61h37.36V204.5q23.6-14,44.94-18.26v37.92q-22.75,4.78-39,9.83l-5.62,2v94.1Z"/><path d="M949.14,294.53q6.6,5.76,19,5.75,26.13,0,46.63-1.68l7.86-.84.57,27.81q-32.31,7.86-58.43,7.86-31.76,0-46.07-16.85T904.34,261.8q0-75.56,62.07-75.56,61.25,0,61.24,63.48l-2.81,26.13H942.26Q942.53,288.77,949.14,294.53Zm41.43-47.33q0-16.86-5.34-23.46t-18.68-6.6q-13.34,0-18.82,6.88T942,247.2Z"/><path d="M1036.92,330.06V133.43h37.64V330.06Z"/></g></g></svg>