<svg xmlns="http://www.w3.org/2000/svg" viewBox="0 0 135.54 50"><g id="Calque_2" data-name="Calque 2"><g id="Calque_1-2" data-name="Calque 1"><path d="M50.35,25c0,.43,0,.86,0,1.29s-.06.91-.11,1.36a26.2,26.2,0,0,1-.49,2.9c-.15.64-.32,1.28-.52,1.91s-.44,1.33-.71,2a26.46,26.46,0,0,1-1.7,3.36c-.35.58-.73,1.15-1.13,1.71s-1,1.34-1.58,2c-.41.45-.83.9-1.27,1.32s-1,.93-1.51,1.36q-.54.45-1.11.87c-.4.3-.82.59-1.24.86-.7.44-1.4.87-2.14,1.24-.4.2-.79.41-1.2.58L35,48l-1,.41-.34.13c-.44.15-.88.28-1.33.42s-1,.28-1.55.4-1,.22-1.56.3-1,.15-1.54.2-.93.07-1.39.1-1.07,0-1.61,0-1,0-1.5-.08l-.77-.07-.59-.07-.32,0c-.68-.1-1.35-.22-2-.37s-1.55-.4-2.31-.64c-.48-.16-.95-.34-1.42-.52-.78-.31-1.53-.67-2.27-1.05-.38-.19-.75-.41-1.12-.63s-.73-.45-1.09-.68-.52-.36-.78-.54-.77-.58-1.16-.88l-.66-.56C8,43.39,7.5,42.88,7,42.35s-1-1.06-1.45-1.63q-.45-.55-.87-1.14c-.27-.38-.53-.76-.77-1.15s-.36-.57-.53-.87c-.26-.45-.51-.9-.75-1.37s-.46-1-.67-1.46-.33-.81-.47-1.22-.27-.71-.37-1.08-.27-.9-.38-1.36q-.24-1-.42-2c0-.29-.08-.58-.11-.86,0-.12,0-.25,0-.37,0-.3-.07-.59-.09-.89C0,26.44,0,25.9,0,25.37s0-1,0-1.56c0-.32,0-.63.07-.94s0-.51.07-.77.07-.57.11-.86.07-.42.11-.63c.09-.51.2-1,.32-1.53s.24-1,.39-1.43.35-1.1.56-1.64l.3-.76c.09-.22.19-.44.29-.65l.39-.83.49-.92c.23-.42.48-.83.73-1.24s.56-.85.86-1.27.51-.67.76-1,.48-.57.72-.85c.51-.57,1-1.12,1.58-1.64a24.4,24.4,0,0,1,1.9-1.63Q10.5,4.58,11.38,4c.53-.33,1.07-.66,1.61-1,.18-.1.36-.2.55-.29.56-.28,1.11-.55,1.68-.79.73-.31,1.47-.59,2.23-.83S19.1.65,19.94.48c.39-.07.78-.15,1.17-.21L22,.16l.69-.07.52,0h.12A23.76,23.76,0,0,1,25.9,0c.35,0,.69,0,1,.06l.88.08.91.11.81.14c.36.06.71.13,1.07.21l.67.16c.66.16,1.31.36,1.95.57a24.33,24.33,0,0,1,2.37.94c.74.33,1.46.7,2.16,1.1s1.26.76,1.86,1.18.92.67,1.37,1,.81.67,1.2,1,1,.9,1.41,1.39.78.85,1.14,1.3.73.92,1.06,1.4.82,1.2,1.18,1.83.6,1.08.88,1.64.43.91.62,1.38l.36.92c.23.62.43,1.25.61,1.88s.33,1.28.45,1.93q.15.7.24,1.41c0,.39.09.77.12,1.16s.09,1.07.09,1.61C50.36,24.66,50.35,24.84,50.35,25ZM24.69,1.56c-.77,0-1.53.05-2.3.13-.46.05-.92.11-1.37.19-.61.1-1.22.23-1.82.38a20.49,20.49,0,0,0-2.15.66c-.66.24-1.31.51-1.94.81s-1.06.51-1.57.8-.84.49-1.24.76-.76.5-1.13.77S10.38,6.67,10,7s-.71.61-1,.92S8,8.81,7.6,9.29a23.6,23.6,0,0,0-1.62,2c-.38.52-.72,1.05-1.05,1.59s-.51.89-.75,1.34-.5,1-.72,1.53-.39,1-.56,1.45a22.37,22.37,0,0,0-.74,2.54c-.15.68-.28,1.36-.37,2.05s-.15,1.31-.18,2a20,20,0,0,0,0,2c0,.42,0,.83.07,1.24l.09.84c.05.48.14,1,.22,1.44s.23,1.1.37,1.64c.1.36.2.72.31,1.07s.13.43.21.64c.24.64.48,1.28.76,1.91.19.41.38.82.59,1.22s.46.85.71,1.26.55.9.85,1.33.52.71.79,1.05.56.69.85,1c.44.51.91,1,1.39,1.45s1,.88,1.46,1.29,1,.79,1.53,1.14c.35.23.7.47,1.06.69s.84.49,1.27.72a24.17,24.17,0,0,0,2.43,1.11c.62.24,1.24.44,1.88.63.44.13.89.24,1.34.34s1,.22,1.53.3.8.12,1.2.16c.6.06,1.2.1,1.81.12s1,0,1.48,0,1,0,1.46-.08c.33,0,.66-.06,1-.11s.66-.1,1-.15c.48-.08,1-.18,1.43-.29s1-.26,1.53-.42.73-.23,1.08-.36c.56-.2,1.11-.43,1.65-.67a21,21,0,0,0,2-1c.48-.27,1-.57,1.41-.88s.69-.47,1-.72.81-.63,1.2-1,.8-.71,1.19-1.09a21.84,21.84,0,0,0,1.66-1.8c.43-.52.84-1.06,1.23-1.61a22.44,22.44,0,0,0,1.19-1.91,21.64,21.64,0,0,0,1.11-2.27c.09-.21.17-.41.25-.62a16.83,16.83,0,0,0,.64-1.85c.16-.54.29-1.08.42-1.63s.17-.84.23-1.26.16-1.1.21-1.65.06-.82.07-1.23a22.52,22.52,0,0,0,0-2.6c0-.28-.06-.56-.08-.84A14.06,14.06,0,0,0,48.41,21c-.08-.44-.17-.89-.28-1.33s-.3-1.15-.48-1.71c-.08-.25-.16-.49-.25-.73-.16-.45-.34-.89-.52-1.34-.08-.19-.16-.38-.25-.56-.24-.52-.5-1-.78-1.52-.19-.33-.38-.66-.58-1s-.5-.79-.77-1.17L44,10.89c-.22-.28-.44-.56-.67-.83s-.41-.49-.63-.73c-.42-.46-.86-.89-1.3-1.32a20.67,20.67,0,0,0-1.6-1.37,23.25,23.25,0,0,0-2.19-1.53q-.57-.35-1.14-.66c-.44-.24-.89-.47-1.35-.67s-.89-.4-1.34-.58-1.06-.38-1.59-.56-.95-.27-1.43-.39c-.28-.07-.57-.14-.85-.19S29,1.9,28.61,1.83c-.7-.11-1.4-.18-2.11-.22S25.29,1.55,24.69,1.56Z"/><path d="M48.48,25.06c0,.37,0,.74,0,1.11,0,.14,0,.28,0,.42,0,.43-.08.86-.13,1.28s-.12.88-.2,1.32-.19,1-.31,1.43-.32,1.18-.52,1.76a22.53,22.53,0,0,1-1.11,2.7,21.38,21.38,0,0,1-1.43,2.51A22.26,22.26,0,0,1,43,39.93a20.92,20.92,0,0,1-1.65,1.74l-.82.76c-.34.29-.69.56-1,.84-.19.15-.38.3-.57.43a23.91,23.91,0,0,1-2.12,1.37c-.59.33-1.19.65-1.81.93s-1,.45-1.55.64-1.28.45-1.93.64l-.6.16c-.4.09-.8.19-1.21.27-.65.13-1.31.23-2,.31H27.5l-.32,0h-.13c-.52,0-1,.07-1.56.07s-.92,0-1.38,0-.93-.05-1.39-.1c-.73-.06-1.45-.18-2.18-.31-.47-.09-.95-.21-1.42-.33l-.62-.17c-.5-.14-1-.31-1.48-.49a20.17,20.17,0,0,1-2.3-1c-.66-.33-1.31-.69-1.94-1.08s-1.13-.74-1.67-1.15-.82-.65-1.21-1a19.59,19.59,0,0,1-1.48-1.4,18.73,18.73,0,0,1-1.26-1.4l-.72-.91A25.23,25.23,0,0,1,5,36.59c-.38-.67-.74-1.37-1.06-2.07-.23-.52-.45-1.05-.64-1.58-.08-.24-.17-.47-.25-.71-.19-.57-.35-1.16-.5-1.76S2.2,29,2.09,28.21C2,27.8,2,27.38,2,27a13.88,13.88,0,0,1-.07-1.44v-.14a6.62,6.62,0,0,1,0-.77c0-.57,0-1.14.09-1.71s.11-1,.19-1.5c0-.18.06-.37.09-.56s.13-.66.21-1,.12-.51.19-.77a15,15,0,0,1,.43-1.45c.16-.47.32-.95.52-1.41l.29-.69c.18-.38.36-.76.55-1.13.34-.67.72-1.31,1.11-1.93.2-.32.42-.62.63-.92s.48-.65.73-1l.6-.72a21.61,21.61,0,0,1,2.07-2.1c.4-.37.82-.72,1.25-1s.6-.47.92-.68c.47-.33.95-.65,1.45-.94.3-.18.6-.35.91-.51.48-.27,1-.51,1.48-.74a24.64,24.64,0,0,1,2.91-1.06c.55-.17,1.11-.3,1.68-.42s1.16-.22,1.75-.3c.4-.06.81-.1,1.21-.12l.62,0c.87,0,1.75,0,2.62,0L27,2c.62.05,1.23.12,1.84.22s1.07.19,1.61.32,1.13.29,1.69.47,1.25.41,1.86.67,1,.45,1.56.7,1.09.58,1.63.89l.75.48.66.44.88.64c.52.42,1,.85,1.53,1.3s.84.81,1.24,1.24.79.87,1.15,1.33.67.86,1,1.31.6.91.88,1.37c.37.62.7,1.25,1,1.9a20.35,20.35,0,0,1,.87,2.11,21.84,21.84,0,0,1,.68,2.22c.15.61.27,1.23.37,1.85q.1.68.18,1.35c0,.29,0,.59.07.89C48.45,24.12,48.47,24.59,48.48,25.06ZM27.54,23.87h0s0-.06,0-.07l.25-.16.79-.46,2.26-1.34,1.08-.65.68-.4L33.89,20,35,19.35l2.43-1.44,1.42-.85c.64-.37,1.27-.75,1.9-1.13l.92-.54,1.53-.91.49-.29.08-.06a.05.05,0,0,0,0-.08l0-.09c-.19-.33-.41-.64-.62-1s-.4-.58-.61-.87-.64-.82-1-1.21-.47-.53-.71-.78a23.3,23.3,0,0,0-1.78-1.66c-.61-.5-1.25-1-1.91-1.41L37.09,7H37L37,7.12l-.48.69-2.08,3-1.07,1.57c-.5.71-1,1.42-1.48,2.14l-1,1.41-1,1.38c-.61.89-1.23,1.78-1.84,2.68l-1.5,2.18a2.83,2.83,0,0,1-.2.28h0s0,0,0,0a.36.36,0,0,1,0-.09c.32-.69.65-1.39,1-2.09l1-2.13c.27-.56.53-1.12.79-1.68.17-.37.34-.75.52-1.13l1.05-2.26,1.36-2.92.42-.92L33.05,8c.36-.77.72-1.54,1.07-2.31l.09-.21a.07.07,0,0,0,0-.1l-.13-.07C33.69,5.19,33.34,5,33,4.9l-1.29-.45c-.17-.06-.35-.1-.52-.15a.09.09,0,0,0-.12.06.64.64,0,0,1,0,.07c-.05.15-.09.3-.14.45L30.5,6.21c-.12.39-.24.78-.35,1.16l-.51,1.71c-.26.88-.53,1.76-.79,2.64-.19.64-.39,1.27-.58,1.91l-.54,1.83c-.24.79-.47,1.58-.71,2.37l-.6,2c-.22.73-.43,1.46-.65,2.18l-.12.38s0,.06-.06.05a.49.49,0,0,1,0-.12c0-.22.06-.44.08-.66s.07-.55.1-.82L26,19.44c.06-.46.12-.92.17-1.38s.1-.72.14-1.08l.12-.93c0-.34.09-.67.13-1s.11-.9.16-1.35l.18-1.37c.06-.49.13-1,.19-1.45,0-.31.07-.61.11-.91l.12-1c0-.32.09-.64.13-1l.18-1.45c0-.3.08-.6.11-.9.08-.62.16-1.23.23-1.85a.31.31,0,0,0,0-.1s0-.06-.06-.07l-.1,0c-.61-.08-1.21-.14-1.82-.16H24.32c-.08,0-.11,0-.11.12v.18c0,.48.05,1,.07,1.46s0,1.22.07,1.83,0,1.2.08,1.81c0,.33,0,.67,0,1l.06,1.41c0,.45,0,.89,0,1.34l0,.66c0,.51.05,1,.07,1.51l.06,1.64c0,.12,0,.24,0,.37,0,.53.05,1.07.07,1.61l0,.71c0,.77.06,1.54.1,2.3,0,.18,0,.35,0,.52s0,.27,0,.4v.07s0,0,0,0h0c0-.21-.09-.42-.13-.63-.11-.54-.21-1.07-.32-1.61-.08-.38-.15-.77-.23-1.16s-.21-1-.31-1.53c-.15-.72-.29-1.44-.43-2.16L23.25,14c-.13-.69-.27-1.38-.41-2.06-.16-.84-.33-1.67-.5-2.51l-.18-.89c-.05-.29-.11-.57-.17-.85l-.3-1.53-.27-1.36-.18-.88c0-.16,0-.17-.21-.15l-.17,0c-.38.07-.75.16-1.11.25a19.43,19.43,0,0,0-2,.6l-.09,0a.09.09,0,0,0,0,.09.16.16,0,0,0,0,.09c.18.5.38,1,.56,1.5.36.94.7,1.87,1.06,2.81S20,11.07,20.38,12c.24.64.48,1.28.73,1.93s.47,1.24.71,1.87l.9,2.41c.22.59.45,1.17.67,1.76s.41,1.08.61,1.62l.28.72s0,.08,0,.11h0l-.05-.05-.55-.94-1-1.72L22,18.62l-1.07-1.81c-.25-.41-.49-.82-.73-1.24L18.7,13l-.24-.41c-.2-.32-.39-.65-.58-1L17,10.22,15.77,8.09l-1-1.64c-.05-.09-.11-.18-.17-.27a.07.07,0,0,0-.1,0l-.16.08a20.2,20.2,0,0,0-2.09,1.36,18.51,18.51,0,0,0-1.47,1.18,22.13,22.13,0,0,0-1.63,1.58A23.46,23.46,0,0,0,7.5,12.4c-.12.16-.22.33-.34.49l0,.07s0,0,0,0l.14.11L8.59,14l2.06,1.38,1.63,1.08,1.36.91,2.06,1.37,1.5,1c.43.28.86.56,1.28.85l1.11.74,1.63,1.08,1.86,1.24s0,0,.05.05a0,0,0,0,1,0,0s0,0,0,0l-.09,0-.57-.24-2.1-.88-.68-.29-1.28-.54-2.53-1.06-2.08-.87-1.23-.52-1.9-.8L8.14,17.45l-1.39-.58-.89-.38-.48-.2a.09.09,0,0,0-.11,0l-.1.2-.3.76c-.18.47-.34.95-.49,1.43,0,.13-.08.27-.11.4l0,.1a.09.09,0,0,0,0,.08l.09,0,.91.24,1.29.35,2.23.58,1.43.38,1.18.31,2.22.6,2.11.55,1.6.43.84.21,1.41.38.93.24,1.87.49.16.06s0,0,0,0v0h-.17l-1-.11-2.51-.27-2-.21-1-.11L14,23.29c-.18,0-.36,0-.54-.06l-1.06-.12-1-.1L10.87,23l-.67-.07-1.52-.16L7,22.54l-2.16-.23L4,22.22l-.24,0a.11.11,0,0,0-.1.07s0,0,0,.07c0,.2-.05.41-.07.61q-.07.72-.09,1.44c0,.28,0,.57,0,.86a.16.16,0,0,0,0,.1s0,0,0,0h.07l.62,0,.94,0,1.38,0,2.63-.11,1.8-.06.62,0L13.09,25,14.55,25l1.59-.06,2.32-.09.92,0,.67,0,.76,0,1.51-.07a1,1,0,0,1,.25,0,0,0,0,0,0,0,0l-.19.05-1,.21-3.17.65-1.41.28-2.62.55-2.08.42-2.7.55-2.08.43-1.75.36-1.62.33-.12,0a.08.08,0,0,0,0,.08.28.28,0,0,0,0,.09,12.51,12.51,0,0,0,.29,1.38c.13.53.27,1,.44,1.55a21.14,21.14,0,0,0,.84,2.17c.17.37.35.73.53,1.09l.33.61c0,.08.09.09.16,0l.43-.25,1.48-.86,1.56-.9L10.91,33l1.54-.89,1.31-.76c.5-.3,1-.59,1.52-.88.33-.2.66-.4,1-.59l1.86-1.08L20,27.69,21.2,27l1.39-.81a.25.25,0,0,1,.16-.06h0c0,.06-.05.08-.09.11l-1,.81L19.9,28.5l-1.62,1.33-.82.68L16,31.69l-1.2,1-1.16,1-1.75,1.42-.84.7L10,36.64l-1.11.92-.76.63-.06.05a.07.07,0,0,0,0,.09l.12.16c.3.38.63.74,1,1.11l.09.08s.07,0,.09,0a2.75,2.75,0,0,0,.26-.22l.93-.86,1.66-1.52,1.58-1.46,1.37-1.26.95-.87.79-.72.83-.77,1.62-1.49,1.86-1.72,1.33-1.22,1.22-1.12,1.17-1.07.3-.27a.06.06,0,0,1,.09,0l.24.24,1.29,1.31,2.42,2.48,2.62,2.67c.54.56,1.08,1.11,1.63,1.66L35,35,37,37.13l2.57,2.62.54.55.08.09c.08.07.11.06.19,0l0,0c.29-.3.59-.6.88-.91,0-.05.09-.11.14-.17a.09.09,0,0,0,0-.13l0,0-1.64-1.51L38.11,36.1c-.47-.44-.94-.88-1.42-1.31l-.07-.07L35.83,34l-1-.94-.94-.85-.71-.65-1-.94-1.4-1.29-1.3-1.19-1.86-1.71-.14-.14a.13.13,0,0,1,0-.09h0l.64.42,1.87,1.17,1.74,1.08,1.14.71,2,1.25L37,32.18l.46.3,1.35.83,2,1.24,2.14,1.34.61.38.11,0h0a.24.24,0,0,0,.06-.08l.37-.62c.32-.56.62-1.14.89-1.73l.31-.73c.16-.38.3-.77.44-1.16.21-.62.39-1.25.55-1.88a3.4,3.4,0,0,0,.07-.34.09.09,0,0,0-.06-.11l-.38-.11-1.54-.4-1.82-.48-1.94-.5-2.44-.63-2.83-.74-2.17-.57-1.73-.45L30,25.4,28.33,25l-.26-.08,0,0s.06,0,.09,0l.72.06L30,25l.76.06.74.07c.48.05,1,.1,1.43.13l.23,0,1.23.12.84.07,1.4.13,1.28.12,1,.08.45.05.81.07.57,0,.76.08,1.61.14,1.82.16.76.07.94.08h.15a.09.09,0,0,0,.07-.06l0-.49c0-.45,0-.9,0-1.34s0-.71-.05-1.06c0-.05,0-.09,0-.13a.11.11,0,0,0-.09-.07h-.44c-.17,0-.33,0-.5,0l-1.33.07-2.3.13-1.49.07-1.78.1-1.48.08-.4,0-1.31.07L34.39,24H34.2l-1.44.07-1.31.07-1.23.07-1,.05-.87,0H28s0,0,0,0l.36-.08,2.52-.52,1.21-.25,1.55-.33,2.21-.45,1.19-.25c.77-.17,1.55-.32,2.32-.48l2.45-.52,1.09-.22,1.92-.4,1.3-.28.17,0a.09.09,0,0,0,0-.1.3.3,0,0,0,0-.1,19.55,19.55,0,0,0-.77-2.61,1.42,1.42,0,0,0-.08-.18.07.07,0,0,0-.06,0l-.15,0-.67.24-1.75.62-2,.72-1.54.55c-.75.28-1.5.54-2.26.81l-1.37.5-2.22.79c-.41.14-.82.3-1.23.45l-2.52.9-1.46.52Z"/><path d="M27.54,23.87h0Z"/><path d="M22.75,26.13h0Z"/><path d="M27.43,26.2h0Z"/><path d="M62.51,20.67l-.75-3.07q.72-.18,1.62-.33c.53-.08,1.14-.16,1.85-.22s1.5-.11,2.38-.11a14.71,14.71,0,0,1,1.81.12,10.35,10.35,0,0,1,1.87.4,5.07,5.07,0,0,1,1.54.78,2.37,2.37,0,0,1,.88,1.21c.21.72.38,1.38.5,2s.25,1.21.36,1.8.23,1.22.35,1.87.26,1.39.45,2.23l.75,1.73L78,28.92l.47,1.94-1.69,1.26H72l-.91-1.65a3.35,3.35,0,0,1-1,.76,8.18,8.18,0,0,1-2.3.8,4.89,4.89,0,0,1-.77.09H60.79a7.79,7.79,0,0,1-.89-1.26A3.52,3.52,0,0,1,59.47,29a6.32,6.32,0,0,1,.18-1.45,7.17,7.17,0,0,1,.5-1.48,6.58,6.58,0,0,1,.79-1.33,4.38,4.38,0,0,1,1.07-1l7.51-1-.19-1.59-1.13-1.7Zm1.63,7.4a2.37,2.37,0,0,0,.81,2c.56,0,1.13-.1,1.69-.19s1.09-.19,1.59-.31,1-.25,1.35-.38.71-.24.94-.34l-.63-4.06L65,25.93A4.84,4.84,0,0,0,64.14,28.07Z"/><path d="M94.71,19.84c0,1,0,2.09,0,3.16s0,2.11,0,3.1v2.43l-3.85,3.68H83.07L79.53,29.4V19.72l-2.16-1.17.78-1.37H84l0,10.84,1.09,2.18,3.57-.32,1.32-2.22,0-8.15-.3-.21L89.37,19l-.37-.3-.24-.17V17.18h5.95Z"/><path d="M101.92,26.31c0,1.32,0,2.57,0,3.74l1.37.51c0,.26,0,.52,0,.76s0,.52,0,.8H97.4c0-.3,0-.72,0-1.24s0-1.12,0-1.78,0-1.35,0-2.08V19.48l-1.59-1,.75-1.34h4.94l.19,2.75a19.78,19.78,0,0,1,2-1.56,12.51,12.51,0,0,1,1.83-1.06,4.48,4.48,0,0,1,1.83-.46,4.83,4.83,0,0,1,1.47.21,7.57,7.57,0,0,1,1.16.46,5.48,5.48,0,0,1,.83.51l.45.34-1.19,3.2-4.06-.9A4.2,4.2,0,0,0,105,21c-.41.17-.82.35-1.22.55s-.78.4-1.11.6l-.76.45C101.9,23.74,101.91,25,101.92,26.31Z"/><path d="M116.41,29a4.46,4.46,0,0,0,3.39,1.39,4.19,4.19,0,0,0,1.82-1.19c.5-.56,1-1.21,1.63-1.94l3.5,1.22a2.44,2.44,0,0,1-.44.82,8.38,8.38,0,0,1-1,1.2,8.25,8.25,0,0,1-1.44,1.09,3.3,3.3,0,0,1-1.55.51h-7.67a2.5,2.5,0,0,1-1.71-.95,9.41,9.41,0,0,1-1.58-2.33,12.22,12.22,0,0,1-1-2.95,6.24,6.24,0,0,1,0-2.86c.11-.33.29-.79.54-1.37a9.51,9.51,0,0,1,1-1.75,8.65,8.65,0,0,1,1.53-1.63,5.14,5.14,0,0,1,2.16-1c.56-.1,1.24-.18,2-.24A24,24,0,0,1,120,17a19.28,19.28,0,0,1,2.25.19,3.92,3.92,0,0,1,1.58.53,5.61,5.61,0,0,1,1,.94,8.53,8.53,0,0,1,.94,1.42,8.77,8.77,0,0,1,.68,1.73,7.44,7.44,0,0,1,.3,1.85l-2.1,1.65-9.45.5A5.65,5.65,0,0,0,116.41,29Zm5.38-6.87c-.13-.46-.3-.95-.5-1.46a11.62,11.62,0,0,0-.63-1.36c-.21-.4-.42-.61-.61-.63a2.93,2.93,0,0,0-.79.06c-.33.06-.66.14-1,.23s-.68.19-1,.3a5.94,5.94,0,0,0-.75.31,2.34,2.34,0,0,0-.44.66,8.14,8.14,0,0,0-.41,1,9.09,9.09,0,0,0-.29,1.17,5.39,5.39,0,0,0-.11,1.07l6.76-.42A7.88,7.88,0,0,0,121.79,22.15Z"/><path d="M133.32,29.61l2.22.62v1.89H129L129,13.68l-2.41-1,.4-1.43h6.29Z"/></g></g></svg>