<svg xmlns="http://www.w3.org/2000/svg" viewBox="0 0 443.46 140.93"><defs><style>.cls-1{fill-rule:evenodd;}</style></defs><g id="Calque_2" data-name="Calque 2"><g id="Calque_1-2" data-name="Calque 1"><path d="M178.28,54.15,175.55,43q2.61-.64,5.91-1.19c1.89-.29,4.13-.56,6.7-.81s5.46-.38,8.64-.38a54,54,0,0,1,6.59.43,37.07,37.07,0,0,1,6.76,1.47,18.41,18.41,0,0,1,5.62,2.82A8.51,8.51,0,0,1,219,49.7c.76,2.6,1.37,5,1.82,7.21s.89,4.39,1.31,6.56.83,4.43,1.25,6.78,1,5,1.64,8.08l2.73,6.29,6.7-.54,1.71,7L230,95.69H212.7l-3.29-6a13.32,13.32,0,0,1-3.64,2.77,27.49,27.49,0,0,1-4.31,1.84,29.64,29.64,0,0,1-4,1,17.85,17.85,0,0,1-2.78.33H172a30.09,30.09,0,0,1-3.24-4.56,13.13,13.13,0,0,1-1.53-6.72,24.19,24.19,0,0,1,.62-5.26,27,27,0,0,1,1.82-5.37A25,25,0,0,1,172.6,69a15.56,15.56,0,0,1,3.86-3.63l27.27-3.69-.68-5.75L199,49.7ZM184.19,81c-.31,2.57.68,5,2.95,7.32,2.05-.14,4.09-.38,6.14-.7s4-.71,5.79-1.14,3.45-.89,4.89-1.36,2.57-.88,3.4-1.25l-2.27-14.75-17.84,4.12A17.71,17.71,0,0,0,184.19,81Z"/><path d="M295.19,51.11q0,5.64.05,11.5t.06,11.22v8.84L281.33,96H252.92L240.08,85.82V50.68l-7.84-4.23,2.84-5h21.36l.12,39.37,4,7.91,13-1.19,4.77-8,.11-29.61-1.08-.76q-.74-.54-1.47-1.14l-1.37-1.09a5.84,5.84,0,0,0-.85-.59V41.46h21.59Z"/><path d="M321.38,74.59q0,7.22.05,13.61l5,1.85q0,1.41-.06,2.76c0,.91-.05,1.86-.05,2.88H305c0-1.09,0-2.59.05-4.51s.08-4.06.12-6.45.06-4.9.06-7.54V49.81l-5.8-3.47,2.73-4.88h17.95l.68,10a73,73,0,0,1,7.16-5.64,43.59,43.59,0,0,1,6.65-3.85,15.72,15.72,0,0,1,6.64-1.68,17.75,17.75,0,0,1,5.34.76,29.12,29.12,0,0,1,4.2,1.68,19,19,0,0,1,3,1.85c.79.61,1.34,1,1.64,1.24L351.09,57.4l-14.77-3.25a15.8,15.8,0,0,0-3.81,1.13c-1.48.62-2.95,1.29-4.43,2s-2.82,1.45-4,2.17l-2.73,1.63Q321.32,67.38,321.38,74.59Z"/><path d="M374,84.46q3.81,4.61,12.33,5a15.26,15.26,0,0,0,6.59-4.33q2.73-3,5.91-7l12.72,4.44a8.8,8.8,0,0,1-1.59,3,30.66,30.66,0,0,1-9,8.3,12,12,0,0,1-5.63,1.85H367.45c-2,0-4-1.14-6.19-3.42a34.28,34.28,0,0,1-5.74-8.46,42.92,42.92,0,0,1-3.64-10.74A22.51,22.51,0,0,1,352,62.71a50.24,50.24,0,0,1,1.93-5,35.58,35.58,0,0,1,3.63-6.34,30.9,30.9,0,0,1,5.57-5.91A18.09,18.09,0,0,1,371,41.78c2-.36,4.51-.65,7.39-.87a86.57,86.57,0,0,1,8.69-.21,62.36,62.36,0,0,1,8.18.7A14.39,14.39,0,0,1,401,43.3a19.26,19.26,0,0,1,3.58,3.42A28.24,28.24,0,0,1,408,51.87a33.26,33.26,0,0,1,2.5,6.29,27.54,27.54,0,0,1,1.08,6.72l-7.61,6-34.31,1.84A20.45,20.45,0,0,0,374,84.46Zm19.54-24.95c-.49-1.69-1.1-3.47-1.82-5.31a40.88,40.88,0,0,0-2.27-4.93c-.79-1.45-1.53-2.21-2.21-2.28a11.2,11.2,0,0,0-2.9.21c-1.17.22-2.39.49-3.64.82s-2.44.68-3.57,1.08a20.56,20.56,0,0,0-2.73,1.14,8.48,8.48,0,0,0-1.59,2.39,29.79,29.79,0,0,0-1.48,3.69,33,33,0,0,0-1.08,4.22,22.44,22.44,0,0,0-.4,3.91l24.54-1.52A26.36,26.36,0,0,0,393.52,59.51Z"/><path d="M435.39,86.57l8.07,2.28v6.84H419.6l.22-66.92L411.08,25l1.47-5.21h22.84Z"/><g id="Bentham_Association"><path class="cls-1" d="M74.2,140.93c3.37-4.35,8.21-8.27,11.88-12.72-3.51-2.33-7.46-4.23-11.16-6.36,4.37.39,8.7,1.85,13.2,2.52,3.24-2.48-1.62-3.66-1.68-5.4s2-2.37,3-3.48c-3.8-4-9.4-6.11-16.31-7-1,9.18-.93,18.73-1.44,28.8,0,.67.23,3.58-.72,3.6s-.82-3-.84-3.48c-.54-10-1-19.81-1.56-29.16-6.18,1.46-11.47,3.82-15.36,7.56,1,.59,4.11.39,4.32,1.92s-2.39,1.88-2.4,3.72c0,4.46,8.93.21,11.64.24-1.79,3.94-6.33,5.11-11,6.12a41.17,41.17,0,0,0,5.88,6.6,79.25,79.25,0,0,1,6.12,6.48,69,69,0,0,1-30.24-8.4A70.69,70.69,0,0,1,5.92,98.69c-6-13.32-8.14-32.14-3.12-48.11C7.41,35.93,14.92,24.87,25.6,15.9,36.06,7.1,49.79,1,67.6.06a81,81,0,0,1,12,.6C83.45,1,86.77,2.1,90.28,2.82A41.08,41.08,0,0,1,97.6,5a67.32,67.32,0,0,1,29.27,22.2,71.18,71.18,0,0,1,10.32,19.19c2.57,7.28,4.73,15.64,4.56,24.84a72.93,72.93,0,0,1-6.36,27.84C128.5,115,117,126.38,101.55,134A70.45,70.45,0,0,1,74.2,140.93ZM67.72,7.74c-7.45.3-17,3.3-19.08,9.36-.85,2.46-.27,5-1.08,7.92-10,2.9-19,6.16-25.8,12.72-3.12,3-6.48,6.65-8,11.27-3.16,9.38,1.11,20.25,6.48,25.44,7,6.79,15.09,10.76,26.28,13.2,1.48.32,3.7,0,4.92.6,1.06.48,2.32,3.19,3.24,4.32a32.79,32.79,0,0,0,7.92,7.2c1,.67,4.19,2.86,5.28,1.56,1.55-1.86-1.84-2.51-3-3A7.92,7.92,0,0,1,60.16,94c4.29,3.4,16.31,3.4,18.35-1.8a4.3,4.3,0,0,0-3.12-6.12c-1-.24-2.69-.23-2.76-1-.09-1.06,3.74-1.72,2.4-3.6a19.4,19.4,0,0,1-4.56-.12c-2.21-.23-4.73.43-6.72.48-1.44,0-3.07-.81-4.08-.48-1.63.54-.41,3.17-1.55,4.08-1-.17-1.56-1.41-1.68-2.52-.69-6,1-8.47,3-12.24,1.26-2.33,2.06-4.73,4.68-4.8-.57,1.27-2,2.7-1,4.44-2.32,2.08-6.24,5.62-3.6,9.72,1.95.54,3.77-.72,5.75-.72,1.41,0,2.78.49,4.2.36.77-.07,1.49-.56,2.28-.6,2.29-.11,5.57,2,6.84-.24-2.11-.85-5-.91-6.6-2.28.39-1.4.35-3.34-.6-4.08-1.31.19-3.29.44-3.36-.72,2.12-.31,3.45-1,3.48-2.88,0-1.34-1.25-2.08-1.44-3-.24-1.2.33-3.28.36-5a48.23,48.23,0,0,1,0-5.52c.51-3,2.72-3.95,5.52-4.8,3.17-1,6.82-2.31,9.48-.36,1.57,1.15,1.93,3.47,4.2,3.6-.35-2.27-2.35-4.45-4.2-5.88-3-2.3-8-1.42-12.72-1.32-.17-2.77.34-6.67-1.68-7.32-1.79-.57-6,.24-7.2.48C57.68,41.09,52,44.41,49.72,50.93c-1,3-1.26,7.33-1.68,10.92-.95,8-1.46,16.7,1,22.56a8.66,8.66,0,0,1-9.6-3.6c-4.28-7.08,2.26-14.76,4.32-19.56a38.08,38.08,0,0,0,2.87-12.84c-2.58,2.52-2.24,6-3.6,9.24-2,4.7-6.28,7.36-6.35,13.2-2.44-2.32-4.75-4.78-5.4-8.52-1.89-10.85,7.51-17.6,14.28-20.76,20.19-9.42,52.6-5.21,61.79,11.52,3.7,6.73,4.62,18.79,0,27.24-.61,1.13-2,2.26-2.16,3.48a45.08,45.08,0,0,0,13.92-9.6c5.31-5.19,9.8-16.35,6.12-25.68-.82-2.07-2.27-3.73-2.88-5.76-1.57-1.14-2.61-2.73-4-4.08-9.44-9.4-23.61-13.93-40.44-15.84,0-2.39-.1-4.46,1.08-6,3-3.89,9.35.64,12.24,1.68C89,10.61,77.87,7.32,67.72,7.74Zm25,76.67c9.4,1.89,12.69-10.47,7.56-15.72.6,5.31,0,11-4,12,.82-3.28,2.34-6.79,1.8-10.92-.33-2.48-1.78-5.11-2.4-7.92-1-4.4.25-11-2.64-13.08C92.39,61.07,96.39,74.2,92.68,84.41Zm-15.84-28c1.85-.67,2.51-2.22,4.8-1.92,1.74.24,3,2.17,4.8,1.92-.17-2.35-3.59-2.48-4.2-4.8C79.11,51.31,76.43,53.66,76.84,56.45ZM72.52,53c.17.4.29-.46,0,0Zm5.88,5.4c1.89.74,5.72,1.18,7.08-.36a5.82,5.82,0,0,0-2.28-1,1.65,1.65,0,1,1-3.12-1C78.65,56,78.29,56.94,78.4,58.37Zm8.28,3.84c-2.5,2.27-6.83.42-8.4-1.44C78.57,63.92,87.21,68.32,86.68,62.21ZM76.36,70.37c1.76,2,4.68,4.27,5.16,7.8.1.8-.23,1.84-.12,2.76.08.7.48,1.22.48,1.8,0,1.48-2.16,4.83.35,5.16,2.09.28,2.51-5.35,2.28-8.16-.6-7.68-3.76-13.29-9.6-15.84,0-.09-.1-.14-.24-.12C74.12,66.53,77.67,67.23,76.36,70.37Zm-4,34.8c-5.1.83-10.15-2.51-13.2-5.16a45.64,45.64,0,0,1-8.28-9.48C45.77,95,48,107.3,48.16,115.25c6-4,13-8.33,22.56-8.64,10.37-.34,17.13,3.88,24.23,7.32,1.18-8.79,2.79-21.05-4.31-24.36C86,96.39,81.94,103.63,72.4,105.17Z"/><path class="cls-1" d="M62.32,58.61A1.85,1.85,0,0,0,60.64,56a1.71,1.71,0,1,1-3.24,1.08c-1.56-.07-2.11,1.48-3.48,1.2,1.32-2.43,5.35-4.35,8.52-2.76-.36-1.85-1.74-3.68-4.2-3-1.58.44-3.43,2.92-4.92,4-.47.33-.89.29-1.08.48-.53.54-.7,2-1.92,1.32A10.69,10.69,0,0,1,56.56,50c2.09-.83,6.32.17,8,1.68a6.76,6.76,0,0,1,1.68,4.2C66.06,57.47,63.92,58.08,62.32,58.61Z"/><path class="cls-1" d="M62.56,60.65c-.06,2.68-8.55,7.68-8.4,1.68C56.78,64.53,61,62.69,62.56,60.65Z"/><path class="cls-1" d="M66.28,71.09a.91.91,0,0,1-1.08-.6C65.38,69.52,66.41,70.33,66.28,71.09Z"/><path class="cls-1" d="M68.32,74c.19,0,.2.12.36.12-.57,1.91,1.23,2.43,2.16,3.24A2.12,2.12,0,0,1,68.32,74Z"/></g></g></g></svg>