<svg xmlns="http://www.w3.org/2000/svg" viewBox="0 0 457.32 147.14"><defs><style>.cls-1{fill-rule:evenodd;}</style></defs><g id="Calque_2" data-name="Calque 2"><g id="Calque_1-2" data-name="Calque 1"><path d="M192.14,68.55l-2.73-11.17q2.61-.66,5.91-1.2c1.89-.29,4.13-.56,6.7-.81s5.46-.38,8.64-.38a56.05,56.05,0,0,1,6.59.43A37.07,37.07,0,0,1,224,56.89a18.87,18.87,0,0,1,5.62,2.82,8.55,8.55,0,0,1,3.18,4.39c.76,2.6,1.37,5,1.82,7.21s.89,4.4,1.31,6.57.83,4.42,1.25,6.77,1,5,1.64,8.08L241.56,99l6.71-.54,1.7,7-6.14,4.56H226.56l-3.29-6a13.12,13.12,0,0,1-3.64,2.77,27.09,27.09,0,0,1-4.31,1.84,28.25,28.25,0,0,1-4,1,17.72,17.72,0,0,1-2.78.33H185.89a29.6,29.6,0,0,1-3.24-4.56,13.11,13.11,0,0,1-1.53-6.72,24.27,24.27,0,0,1,.62-5.26,27.63,27.63,0,0,1,1.82-5.37,25,25,0,0,1,2.9-4.83,15.56,15.56,0,0,1,3.86-3.63L217.59,76l-.68-5.75-4.09-6.18Zm5.91,26.84c-.31,2.57.68,5,2.95,7.32,2.05-.14,4.09-.38,6.14-.7s4-.71,5.79-1.14,3.45-.89,4.89-1.36,2.57-.88,3.4-1.24L219,83.52l-17.84,4.12A17.63,17.63,0,0,0,198.05,95.39Z"/><path d="M309.05,65.51q0,5.64.06,11.5t.05,11.22v8.84l-14,13.34H266.78l-12.84-10.19V65.08l-7.84-4.23,2.85-5h21.36l.11,39.37,4,7.92,13-1.2,4.77-8,.11-29.61-1.08-.76q-.73-.54-1.47-1.14c-.5-.4-.95-.76-1.37-1.08a5.4,5.4,0,0,0-.85-.6V55.86h21.59Z"/><path d="M335.24,89q0,7.22.05,13.61l5,1.85c0,.94,0,1.86-.05,2.76s-.06,1.87-.06,2.88H318.82c0-1.09,0-2.59.05-4.5s.08-4.07.12-6.46.06-4.9.06-7.53V64.21l-5.8-3.47L316,55.86h17.95l.68,10a70.13,70.13,0,0,1,7.16-5.64,42.78,42.78,0,0,1,6.65-3.85,15.72,15.72,0,0,1,6.64-1.68,17.76,17.76,0,0,1,5.34.75,28.57,28.57,0,0,1,4.21,1.69,18.6,18.6,0,0,1,3,1.84l1.64,1.25L365,71.8l-14.77-3.25a15.43,15.43,0,0,0-3.81,1.14c-1.48.61-2.95,1.28-4.43,2s-2.82,1.45-4,2.17l-2.73,1.63Q335.18,81.78,335.24,89Z"/><path d="M387.84,98.86q3.81,4.62,12.33,5a15.37,15.37,0,0,0,6.59-4.34q2.73-3,5.91-7L425.39,97a8.72,8.72,0,0,1-1.59,3,30.47,30.47,0,0,1-9,8.29,11.84,11.84,0,0,1-5.63,1.85H381.31c-2,0-4-1.14-6.19-3.42a34.28,34.28,0,0,1-5.74-8.46,42.92,42.92,0,0,1-3.64-10.74,22.6,22.6,0,0,1,.12-10.35,50.86,50.86,0,0,1,1.93-5,35.64,35.64,0,0,1,3.63-6.35A30.9,30.9,0,0,1,377,59.87a18.09,18.09,0,0,1,7.84-3.69c2-.36,4.51-.65,7.39-.86a86.56,86.56,0,0,1,8.69-.22,64.13,64.13,0,0,1,8.18.7,14.5,14.5,0,0,1,5.74,1.9,19.9,19.9,0,0,1,3.57,3.42,28.24,28.24,0,0,1,3.41,5.15,33.26,33.26,0,0,1,2.5,6.29,27.07,27.07,0,0,1,1.08,6.73l-7.61,6-34.31,1.84A20.5,20.5,0,0,0,387.84,98.86Zm19.54-24.94c-.49-1.7-1.1-3.47-1.81-5.32a40.85,40.85,0,0,0-2.28-4.93c-.79-1.45-1.53-2.21-2.21-2.28a10.84,10.84,0,0,0-2.9.22c-1.17.21-2.39.48-3.64.81s-2.44.69-3.57,1.08a20.56,20.56,0,0,0-2.73,1.14A8.48,8.48,0,0,0,386.65,67a29.79,29.79,0,0,0-1.48,3.69A32.75,32.75,0,0,0,384.09,75a22.24,22.24,0,0,0-.4,3.9l24.55-1.52A29,29,0,0,0,407.38,73.92Z"/><path d="M449.25,101l8.07,2.27v6.84H433.46l.23-66.92-8.75-3.8,1.47-5.2h22.84Z"/><path class="cls-1" d="M69.72,0c9.23.06,18.61,1.39,29,1.39,4.72,0,9.95.05,14.94.37,6.27.41,13-.69,16.53,2.42a12.36,12.36,0,0,1,1.67,2.22,16,16,0,0,1,1.49,2.33c1.82,4.33,1.37,10.41,1.48,16.61-.08,0-.09,0-.09.09-.9,1.48-2.57,2.17-3.9,3.16-9.48,7-18.87,13.29-28.68,20.51-5.25,3.87-10.82,8-16.06,12.07-2.55,2-5.51,3.7-8.27,5.85a19.44,19.44,0,0,1-4.17,2.88c-1.6.7-3.42,2-4.92,2-3.74.2-3.67-2.6-4.36-5.75-.16-.73-.21-1.8-.38-2.79a7.85,7.85,0,0,1-.28-2.69c.43-1.26,2.27-1.28,4.09-1.76a19.87,19.87,0,0,0,10.11-6.32,30.49,30.49,0,0,0,4.27-5.19,26.13,26.13,0,0,0,1.77-4.74,30.91,30.91,0,0,0,1.3-5.2A33.69,33.69,0,0,0,84.85,29c-.61-2.57-2.29-5.23-3.62-7.52C77.75,15.47,74.42,10,71,3.81,70.55,2.94,69,1,69.44.19A.7.7,0,0,1,69.72,0Z"/><path class="cls-1" d="M62.75,6A5.45,5.45,0,0,1,60.9,8.45c-.72.71-1.44,1.41-2.14,2.13C55,15.33,50.56,19.34,46.69,24c-.81,2.31-1.73,4.57-2.5,7s-2,4.6-2.42,7.06c-.5,2.77.28,5.89.09,9.09,0,.08.1.1.1.19a32.32,32.32,0,0,0,2.78,4.55,30.93,30.93,0,0,0,3,4.27c2.56,2.92,6.39,4.67,9.47,7.24,2.27,1.89,3.33,4.12,3.9,7.61a34.23,34.23,0,0,1,.28,3.81c0,1.21.2,2.66-.56,3.52A3.18,3.18,0,0,1,58.11,78a13.41,13.41,0,0,1-2.32-1,11.57,11.57,0,0,1-2.23-3.15c-2-3.27-4.53-6.37-6.31-9.57A32.89,32.89,0,0,0,43,57.83c-.75-.82-1.66-1.82-2.6-2.69a15.82,15.82,0,0,0-2.88-2.42c-2-.94-6-1.55-8.63-1.76a22,22,0,0,0-7.52,1.11,29.82,29.82,0,0,0-5.29,3c-1.78,1.11-3.84,2-5.39,3.16S7.84,61.35,6.5,62.93c-.68.8-1.44,1.57-2,2.42s-1,2-2.13,2.22a28,28,0,0,1-.19-6.22c0-6.09-.87-12.21-1.11-18.56C.86,38.51.81,34.26.74,30.16c-.07-4.31-.15-8.54.1-12.62C1.11,13,3.14,8.75,6.22,6.77,10.49,4,18.84,4.88,25.44,5.2c8.1.38,16.56-.26,25,.18,2.11.12,4.22.14,6.31.19A22.49,22.49,0,0,1,62.75,6Z"/><path class="cls-1" d="M136.46,75.19a9.69,9.69,0,0,1-3.62,1.21c-3.75.93-7.8,1.94-11.88,2.6-2.71.43-5.47.88-8.26,1.39s-5.56.72-8.36,1.21C99,82.54,93.74,84,88.1,84.66a82.65,82.65,0,0,1-9.29.37c-4.43,0-9.82.55-11.51-2.32a14.45,14.45,0,0,1,.09-4.46c.42-1.36,1.93-2.57,3-3.52A29.94,29.94,0,0,1,74,71.85c2.83-.51,7.22-1.73,10.21-1a14.34,14.34,0,0,1,2.6,1.3c.89.42,1.84.72,2.69,1.11a33.59,33.59,0,0,0,5.29,2.41c1.86.49,5.21.5,7.42.75a17.44,17.44,0,0,0,2.32.27,10.51,10.51,0,0,0,3.53-1.39,66.71,66.71,0,0,0,9.28-5.2c1.75-2.66,3.42-5.57,5.11-8.54a66.31,66.31,0,0,0,4.64-8.91C129,47.77,131,43,132.65,37.87c.76-2.36,2-4.15,2.69-6.68a9.3,9.3,0,0,1,.47-2.14c.5-.81,2.16-1.22,3-1.58,1.54-.68,1,1.83.92,2.23a83.49,83.49,0,0,0-.46,9.28,88.57,88.57,0,0,1-1,12c-.51,4-.63,8.18-.93,12.07S137,71.41,136.46,75.19Z"/><path class="cls-1" d="M62,95.8a10.63,10.63,0,0,1-5.48-.09,35.52,35.52,0,0,1-3.62-1.86c-3.53-1.79-6.43-4.26-10.12-6a66.53,66.53,0,0,0-7.7-3.16c-4-1.34-8.93-3.19-13.83-1.58a15.6,15.6,0,0,0-4.92,3.25A120.1,120.1,0,0,0,3.71,98c-.88.51-1.32,2-2.6,1.76-.6-.88-.44-2.12-.46-3.25-.12-6-.09-11.63-.37-17.82,0-1-.15-2.13-.19-3.44,0-1.14-.3-3,.28-3.25a.68.68,0,0,1,.28-.18c4.77.3,9.56,1,14.3,1.67,4.31.58,8.71,1,13,1.67,6.36,1,12.63,1.87,18.94,3.06,3.6.68,7.8.7,9.65,3.07.71.9,1,2.41,1.49,3.62s1.13,2.39,1.58,3.43C60.64,90.78,61.93,93,62,95.8Z"/><path class="cls-1" d="M131.36,80.11c1-.32.65,2.11.65,3.06,0,3.42-.08,6.85,0,10.68.08,4.55.51,9.17.83,13.46a176,176,0,0,1,.09,20.42c-.09,2.48.29,5.34-.37,7.52a29.31,29.31,0,0,1-1.3,2.79c-1.14,2.62-3.36,6-5.94,7.05-1.75.72-4,.47-6.5.47s-4.77-.1-7-.19c-4.83-.2-10-.09-13.83-.09-4.6,0-9.17-.38-13.74-.38s-9.3-.24-13.74-.55c-1.07-2.28-1-5.21-1.29-8.08-.61-5.81-1.7-10.48-2.14-16.52-.17-2.36-.25-7.07,1.3-7.8,1-.46,2.51.12,3.62.56s2.44.74,3.43,1.11c6.45,2.39,13.31,5.17,19.78,7.34,6.83,2.29,13.53,4.58,20.32,6.86,1.14.38,2.31.78,3.44,1.12s2.24,1.05,3.43.65c.07-1.71-.85-3.29-1.48-4.83q-1.87-4.55-3.81-9.1c-.64-1.52-1.15-3.12-1.85-4.55A27.8,27.8,0,0,0,112,106.2a32.33,32.33,0,0,0-4.08-4.18c-7.4-3.42-16.5-.41-23.86,1.21a35.45,35.45,0,0,0-9.37,3.15c-2.4-.13-3.57.84-5.85,1.3-1.55.31-4,.5-4.83-.46s-.29-4-.09-5.39a34.06,34.06,0,0,1,2.6-9.37c.54-1.28,1.16-3.49,1.85-4.09a9.93,9.93,0,0,1,2.42-.93,12.09,12.09,0,0,1,2.6-.74,14.29,14.29,0,0,1,4.45,1c3.91,1.36,7.52,3.54,10.87,5.29a119,119,0,0,0,11,5.2,18.27,18.27,0,0,0,4,1.39,15,15,0,0,0,9.28-1.39c1.72-.91,3.31-2.65,4.92-4.08s3.11-3.1,4.55-4.46C125.54,86.68,128.28,83.33,131.36,80.11Z"/><path class="cls-1" d="M57.37,104.53a96.84,96.84,0,0,1,3.53,12.9c.32,1.41.93,2.89.65,4.36-.92.73-2.22.33-3.25.28-15.07-.71-30.44-1.35-45.21-2.41-1.16-.08-2.37-.13-3.53-.19-1,0-2.16-.44-3.06.19,0,1.37,1,2.44,1.67,3.62s1.26,2.35,1.86,3.53a55.33,55.33,0,0,0,3.8,7c1.18,1.67,3.59,3.24,5.57,4.36a23.22,23.22,0,0,0,3.07,1.58,17.33,17.33,0,0,0,3.71,1.21,27.75,27.75,0,0,0,3.71.09,53.3,53.3,0,0,0,5.57-.19,16.12,16.12,0,0,0,3.25-1.2c1.06-.41,2.1-.92,3.06-1.3,5.55-2.2,8.4-5.78,13.46-8.63.83-.47,2.34-1.48,3-1.4.82.11,1.17,1.24,1.49,2.23s.8,1.86,1,2.6a42.65,42.65,0,0,1,1.11,6.78c.28,2.08,1.09,4.54.93,6.77-1.62.57-3.38.12-5.1.09s-3.67-.18-5.57-.18c-10.93,0-22.9.59-33.24.56-1.18,0-2.45-.19-3.71-.19-2.33,0-4,0-5.57-.74a11.54,11.54,0,0,1-3-2.23c-1.67-1.67-3.25-2.91-3.53-5.85-.24-2.63.24-5.7.38-8.63.32-6.81.51-14.37.83-21.45a10.31,10.31,0,0,1,.56-3.9,25.88,25.88,0,0,1,8.82,1.21c2.68.72,5.26,1.58,7.8,2.51C26.6,109.76,32,112.18,38,112c3.93-.09,7.12-2.37,9.94-4.08,1.13-.68,2.33-1.39,3.52-2.14C53.2,104.72,55.22,102.47,57.37,104.53Z"/></g></g></svg>